<?xml version="1.0" encoding="utf-8"?>
<!-- Generator: Adobe Illustrator 21.1.0, SVG Export Plug-In . SVG Version: 6.00 Build 0)  -->
<svg version="1.1" id="Layer_1" xmlns="http://www.w3.org/2000/svg" xmlns:xlink="http://www.w3.org/1999/xlink" x="0px" y="0px"
	 viewBox="0 0 222 175" style="enable-background:new 0 0 222 175;" xml:space="preserve">
<style type="text/css">
	.st0{fill:#262F69;}
	.st1{fill-rule:evenodd;clip-rule:evenodd;fill:#262F69;}
</style>
<g>
	<g>
		<g>
			<path class="st0" d="M78.4,70.6c0.4,0.9,0.8,1.9,1.1,3l1.5,5c5.9,6.2,9.6,14.6,9.6,23.8c0,2.1-0.2,4.2-0.6,6.2l2.3,7.8
				c1.7-4.3,2.6-9.1,2.6-14C94.9,89.3,88.4,77.6,78.4,70.6z"/>
			<path class="st0" d="M33.8,134.3l-2.3-7.6c-6.2-6.2-10-14.8-10-24.3c0-2.4,0.2-4.7,0.7-6.9l-1.3-4.4c-0.4-1.3-0.6-2.5-0.8-3.6
				c-1.9,4.6-2.9,9.6-2.9,14.8C17.1,115.6,23.7,127.2,33.8,134.3z"/>
			<path class="st0" d="M105.5,109.8c-1.5-0.7-1.5-2.1-1.4-2.5c0-0.4,0.3-1.8,1.9-2.2c3.3-0.9,5.4-3.9,5-7.3c-0.3-3.4-2.9-6-6.3-6.3
				c-1.6-0.1-2.1-1.5-2.3-1.9c-0.1-0.4-0.4-1.8,0.9-2.8c2.7-2,3.6-5.6,2.1-8.6c-1.5-3.1-4.9-4.5-8.1-3.6c-1.6,0.5-2.5-0.6-2.8-0.9
				c-0.3-0.3-1-1.5-0.1-2.9c1.8-2.9,1.3-6.5-1.2-8.8c-2.5-2.3-6.2-2.5-8.9-0.4c-1.3,1-2.6,0.4-2.9,0.1c-0.4-0.2-1.5-1.1-1.2-2.7
				c0.6-3.3-1.1-6.5-4.3-7.8c-3.2-1.2-6.6-0.1-8.4,2.8c-0.9,1.4-2.3,1.3-2.7,1.2c-0.4-0.1,0.4,1.2,3.2,3.9c1.3-0.5,2.4-1.5,3.2-2.8
				c0.8-1.4,2.2-1.4,3.1-1.1c1,0.4,1.9,1.3,1.6,2.9c-0.6,2.8,0.7,5.7,3.2,7.2c2.5,1.5,5.6,1.4,7.9-0.4c1.3-1,2.5-0.6,3.3,0.1
				c0.8,0.7,1.3,1.9,0.4,3.3c-1.5,2.5-1.4,5.5,0.3,7.9c1.7,2.3,4.7,3.3,7.5,2.5c1.5-0.4,2.6,0.4,3,1.3c0.5,0.9,0.5,2.3-0.8,3.2
				c-2.3,1.7-3.3,4.7-2.5,7.5c0.8,2.8,3.2,4.8,6.1,5c1.6,0.1,2.2,1.3,2.3,2.3c0.1,1-0.3,2.3-1.9,2.7c-2.8,0.8-4.8,3.1-5,6
				c-0.3,2.9,1.2,5.6,3.8,6.9c1.4,0.7,1.6,2,1.3,3c-0.3,1-1.1,2-2.7,1.9c-2.9-0.3-5.6,1.2-6.9,3.8c-0.3,0.7-0.5,1.3-0.7,2l1.7,5.7
				c0,0,0,0.1,0.1,0.1c0.7,0.8,0.8,1.6,0.6,2.3l1.5,5.1c0.5-0.4,1-0.9,1.5-1.4c2.1-2.7,1.9-6.4-0.4-8.9c-1.1-1.2-0.6-2.5-0.4-2.9
				c0.2-0.4,0.9-1.6,2.6-1.4c3.4,0.3,6.4-1.7,7.3-5C110.1,114.6,108.6,111.3,105.5,109.8z"/>
			<path class="st0" d="M36.5,143.4c-1.5,0.2-2.9,1-4,2.2c-1.1,1.2-2.4,1-3.3,0.5c-0.9-0.5-1.6-1.7-1-3.1c1.1-2.7,0.4-5.7-1.8-7.7
				c-2.1-2-5.2-2.4-7.8-1.1c-1.4,0.7-2.6,0.1-3.2-0.7c-0.6-0.8-0.9-2.1,0.2-3.3c2-2.1,2.4-5.2,1.1-7.8c-1.3-2.6-4-4.1-6.9-3.8
				c-1.6,0.2-2.4-0.9-2.7-1.9c-0.3-1-0.1-2.3,1.3-3c2.6-1.3,4.1-4,3.8-6.9c-0.3-2.9-2.2-5.3-5-6c-1.5-0.4-2-1.7-1.9-2.7
				s0.8-2.2,2.3-2.3c2.9-0.2,5.3-2.2,6.1-5c0.8-2.8-0.2-5.7-2.5-7.5C10,82.4,10,81,10.5,80.1c0.5-0.9,1.5-1.8,3-1.3
				c2.8,0.8,5.7-0.2,7.5-2.5c1.7-2.3,1.9-5.4,0.3-7.9c-0.8-1.3-0.3-2.6,0.4-3.3c0.6-0.5,1.4-0.9,2.4-0.6c-0.2-1.8-0.4-3.5-0.6-4.4
				c-1.7,0-3.4,0.6-4.7,1.8c-2.5,2.3-3,5.9-1.2,8.8c0.9,1.4,0.1,2.6-0.1,2.9s-1.2,1.4-2.8,0.9c-3.3-1-6.6,0.5-8.1,3.6
				c-1.5,3.1-0.7,6.6,2.1,8.6c1.3,1,1,2.4,0.9,2.8c-0.1,0.4-0.6,1.7-2.3,1.9c-3.4,0.3-6,2.9-6.3,6.3c-0.3,3.4,1.8,6.4,5,7.3
				c1.6,0.4,1.8,1.8,1.9,2.2s0,1.8-1.4,2.5c-3.1,1.5-4.5,4.8-3.6,8.1c0.9,3.3,4,5.3,7.3,5c1.6-0.2,2.4,1,2.6,1.4
				c0.2,0.4,0.7,1.7-0.4,2.9c-2.3,2.5-2.5,6.2-0.4,8.9c2.1,2.7,5.6,3.5,8.7,2c1.5-0.7,2.6,0.1,2.9,0.4c0.3,0.3,1.3,1.3,0.7,2.8
				c-1.3,3.2-0.1,6.6,2.8,8.4c2.9,1.8,6.5,1.3,8.8-1.3c0.7-0.8,1.5-0.9,2-0.9L36.5,143.4z"/>
		</g>
		<path class="st0" d="M21.7,10.2c0.8-0.2,1,0.4,1.8,0.1c0.8-0.2,0.6-0.9,1.4-1.1c0.8-0.2,1,0.4,1.8,0.1c0.8-0.2,0.6-0.9,1.4-1.1
			C29,8,29.2,8.6,30,8.4c0.8-0.2,0.6-0.9,1.4-1.1c0.8-0.2,1,0.4,1.8,0.1c0.8-0.2,0.6-0.9,1.4-1.1c0.8-0.2,1,0.4,1.8,0.1
			c0.8-0.2,0.6-0.9,1.4-1.1c0,0-0.7-2-1.1-3.3c-0.1-0.2-0.2-0.4-0.3-0.6c0-0.1,0.1-0.2,0-0.2c-0.2-0.9-4.8-0.3-10.2,1.2
			s-9.6,3.5-9.3,4.3c0,0.1,0.2,0.2,0.4,0.3c-0.1,0.4,0,0.8,0,0.8l1,3.3c0.8-0.2,1,0.4,1.8,0.1C21,11.1,20.9,10.5,21.7,10.2z"/>
		<g>
			<path class="st0" d="M56.8,105.1c0,0,1.7-0.5,2-2.3c-1.6,0.5-3.2,1-4.9,1.5C54,104.2,55.4,105.5,56.8,105.1z"/>
			<path class="st0" d="M65.7,135.5c0,0,1.7-0.5,2-2.3l-4.8,1.4C62.9,134.7,64.2,136,65.7,135.5z"/>
			<path class="st0" d="M55.2,92.9c0,0,1.1-1.4-0.6-3.5c-1.6,0.5-3.1,1-4.7,1.4c0,0-1.5,0.5-3.5-0.9c0,0,0.9,1,1.3,2.1
				c0.5,1.5-0.4,3-0.4,3s0.8,0.6,4.2-0.2C51.6,94.9,54.3,94.2,55.2,92.9z"/>
		</g>
		<path class="st0" d="M96.5,153.5c0,0-22.2-74.3-23.4-78c-1.1-3.8-2.8-5.2-2.8-5.2S58,59.3,56.6,56.7c-1.4-2.7-2.6-5.4-2.6-5.4
			S39.1,14.8,38.8,13.7c-0.3-1.1,0.6-1.6,0.3-2.3c-0.2-0.7-1.3-0.6-1.6-1.3c-0.1-0.4-0.4-1.3-0.6-2c-0.8,0.2-1-0.4-1.8-0.1
			c-0.8,0.2-0.6,0.9-1.4,1.1c-0.8,0.2-1-0.4-1.8-0.1c-0.8,0.2-0.6,0.9-1.4,1.1c-0.8,0.2-1-0.4-1.8-0.1c-0.8,0.2-0.6,0.9-1.4,1.1
			C27.1,11,27,11,26.9,11c0.2,0.8,0.5,1.8,0.6,2.1c0.2,0.8-0.5,1.2-0.3,1.9c0.2,0.7,1.2,0.7,1.5,1.7c0.3,1.1,9.8,42.3,10.4,46.2
			c0.6,3.9-2.2,18.7-1,22.5c0.9,3.1,17.7,59.1,22.8,76.2c0.3,1,1.2,2.5,2.2,2.3c-2.5,0.8-2.6,1.4-3.8,1.7c-1.4,0.4-2.4-0.5-3-1.5
			c-3.8-12.5-21.9-73.3-22.9-76.7c-1.1-3.8-0.6-5.9-0.6-5.9s3.4-15.7,3.2-18.7c-0.3-3-0.8-5.9-0.8-5.9s-7.7-38.6-8-39.7
			c-0.3-1.1-1.3-1-1.5-1.7c-0.2-0.7,0.8-1.2,0.6-2c-0.1-0.4-0.6-1.9-0.8-2.7l0,0c-0.8,0.2-0.6,0.9-1.4,1.1c-0.8,0.2-1-0.4-1.8-0.1
			c-0.8,0.2-0.6,0.9-1.4,1.1c-0.1,0-0.2,0.1-0.3,0.1c0.2,0.8,0.5,1.7,0.6,2.1c0.2,0.7-0.8,1.3-0.6,2c0.2,0.7,1.2,0.7,1.5,1.7
			c0.3,1.1,8,39.7,8,39.7s0.5,2.9,0.8,5.9c0.3,3-4.1,19-4.1,19s-0.6,2.1,0.6,5.9c1.1,3.8,23.4,78,23.4,78s1,2.8,2.6,4.5
			c0.6,0.7,1.2,1.2,1.8,1.5c2.2,1.9,11.6,0.9,22.3-2.6c8.5-2.7,15.4-6.2,18.3-8.9c0.3-0.2,0.5-0.5,0.7-0.7c0.6-0.7,0.8-1.4,0.7-1.9
			c0-0.2,0.1-0.3,0.1-0.5C97.2,156.4,96.5,153.5,96.5,153.5z M44.8,94.8c0.3-4.8-2.1-7.5-2.2-7.5c2.4,1.1,5.7,0,5.7,0s4.3-1.3,7-2.2
			c4.1-1.3,5.2,2.5,5.2,2.5s-3.3,0.9-4.9,1.4c0,0,0.9,3,4.4,2c0,0,2.1-0.7,1.6-2.3c-0.6-2.1-1.3-4.3-2-6.3c1.5,0.4,2.9,0.7,4.4,1.1
			c0,0,1.8,6.1,1.8,6.1c0.1,0.4,0.2,0.9,0.2,1.1c0.1,3-2.9,4-2.9,4c-3.8,1.4-5.3-1.6-5.3-1.6c1.4,4.2-3.5,5.5-3.5,5.5
			C48.8,100.3,44.8,94.7,44.8,94.8z M51.8,100.6c1.9-0.6,3.9-1.2,5.8-1.8c0.2-0.1,5.5,3.3,5.5,3.3c-0.2,0.5-0.4,1-0.6,1.5
			c-1.6,3.8-2.9,4.2-2.9,4.2c-2.4,0.7-6.3-3.4-6.3-3.4c-2.4,0.5-2,2.7-2,2.7c0.1,1,1.8,2.4,1.8,2.4c-0.1,0-0.3,0.1-0.4,0.1
			c-1.6-1.3-3.3-2.5-4.9-3.7C48.8,101,51.8,100.6,51.8,100.6z M55.6,127.5c1.5-0.9,3-1.9,4.5-2.8c1-0.7,0-1.3,0-1.3
			c-1.3,0.4-2.1,0.6-3.3,1c-1,0.3-1.1,1.2-1.1,1.2c-1.1-0.8-2-1.5-3.1-2.4c0.4-1.6,2.5-2.5,2.5-2.5c0.4-0.2,1.3-0.4,1.3-0.4
			c-1.9-1.6-3.9-3.1-5.8-4.7c0.2-1.6,0.8-2.8,1.4-3.6c0.9-1.3,2.7-1.8,2.7-1.8c1.8-0.5,3.5-1,5.3-1.6c0.6-0.2,5.6,3.2,5.6,3.2
			c-1.9,3.2,0,4.8-0.2,4.7c-4.2-0.4-3.2-4.1-3.2-4.1c-2,0.6-3.9,1.2-5.8,1.8c-0.2,0-0.8,0.3-1,0.5c-1,1-0.1,2.7-0.1,2.7
			c0.5,1.2,2.6,2.5,2.6,2.5c3.8-1.1,6.7-2,10.5-3.1c0.7-0.2,0.9-1,0.9-1c1.1,0.9,2.3,1.7,3.4,2.6c-0.3,1.6-3,2.2-3,2.2
			c-3.1,0.9-5.2,1.5-8.3,2.4c3.6,2.3,4.7-0.3,4.7-0.3c1.2,0.8,2.3,1.7,3.5,2.5c-1.4,4.2-7-0.4-7-0.4c0.2,0.4,0.3,0.8,0.5,1.2
			c0.6,1.4-0.5,1.9-0.5,1.9c-1.4,0.9-3.2,2-5.1,3.4c-0.9,0.7-0.6,1.6-0.6,1.6C52.2,130,55.6,127.5,55.6,127.5z M60.6,131
			c1.9-0.6,3.9-1.1,5.8-1.7c0.2-0.1,5.4,3.4,5.4,3.4c-0.2,0.5-0.4,1-0.6,1.5c-1.6,3.7-2.9,4.1-2.9,4.1c-2.4,0.7-6.2-3.4-6.2-3.4
			c-2.4,0.5-2,2.6-2,2.6c0.1,1,1.8,2.4,1.8,2.4c-0.1,0-0.3,0.1-0.4,0.1c-1.6-1.2-3.3-2.5-4.9-3.7C57.5,131.6,60.6,131,60.6,131z
			 M61.8,146.2c-1.1-0.8-2.2-1.6-3.3-2.4c0,0,0.7-2.1,2.7-2.7c0,0,7.5-2.1,8.1-2.3c0.6-0.2,0.8-0.9,0.8-0.9c1.2,0.9,2.3,1.8,3.5,2.6
			c0,0-0.3,0.9-1.4,1.6c0.8,0.5,1.5,1.1,2.3,1.6c0,0-1.4,2.2-0.6,3.3c0,0-4-0.3-2.9-4.6c0,0-7.1,2.1-7.8,2.3
			C61.6,145.3,61.8,146.2,61.8,146.2z M93.4,158.1c-2.9-0.3-3.3-0.8-8.8-0.1c-8,1.1-17.9,4.4-17.9,4.4c11.9-5.5,19.6-8.6,27.6-7.6
			C97.3,155.2,96.2,158.4,93.4,158.1z"/>
	</g>
	<g>
		<g>
			<path class="st0" d="M192.2,85.4c0,0.2,0.1,0.3,0.1,0.3C192.2,85.6,192.2,85.5,192.2,85.4z"/>
			<path class="st0" d="M149.3,70.9c-7.4,5.2-12.3,13-13.8,21.9c-0.7,4.1-0.6,8.3,0.1,12.2c6.3-15.7,12.6-31.2,13.9-34.3
				C149.5,70.8,149.4,70.8,149.3,70.9z"/>
			<path class="st0" d="M164,74c-0.1,0.1-0.2,0.1-0.3,0.2C163.7,74.2,163.8,74.1,164,74z"/>
			<path class="st0" d="M202.2,104.2c0.3-2,0.5-3.9,0.5-5.9l-9.6,23.8C197.8,117.2,201,111,202.2,104.2z"/>
			<path class="st0" d="M217.5,98c-4.2-1.1-4.8-6.7-0.9-8.7l0,0c4.6-2.4,2.5-9.4-2.7-8.8c-4.3,0.5-6.9-4.6-4-7.8
				c3.3-3.7-0.7-9.2-5.1-7.5c-0.1,0.7-0.3,1.4-0.4,2.1c0,2,1.1,9.8,2.1,15.9c0.1,0.8,0.3,2.8-0.3,5.5c1.4,5.2,1.7,10.7,0.7,16.2
				c-1.7,10.2-7.3,19-15.7,25c-0.6,0.4-1.1,0.8-1.7,1.1l-6.1,15.2c3,3.3,9,0.6,8-4.2c-0.9-4.2,3.9-7.3,7.4-4.7
				c4.2,3.1,9.6-1.9,6.7-6.3c-2.3-3.6,1-8.2,5.2-7.1c5,1.4,8.2-5.3,4-8.3c-3.5-2.5-2-8,2.3-8.5C222,106.6,222.5,99.3,217.5,98z"/>
			<path class="st0" d="M121.1,108.7L121.1,108.7c4.3,0.3,5.9,5.8,2.5,8.4c-4,3.1-0.9,9.3,3.8,8.3c1.6-4,3.4-8.5,5.3-13.2
				c-2.4-6.4-3.1-13.3-1.9-20.2c1.7-10.2,7.3-19,15.7-25c2.8-2,5.8-3.6,8.9-4.7c4.3-3.2,9.4-7.1,11.5-9c-1.4-0.3-2.7-1.2-3.3-2.8
				c-1.9-4.8-9.1-3.4-9,1.8l0,0c0.1,4.3-5.2,6.4-8.1,3.3l0,0c-3.6-3.8-9.7,0.2-7.8,5c1.6,4-2.5,7.9-6.4,6l0,0
				c-4.7-2.3-9,3.7-5.4,7.4c3,3.1,0.5,8.2-3.8,7.9c-5.2-0.4-7.1,6.7-2.4,8.9l0,0c3.9,1.8,3.5,7.5-0.7,8.7l0,0
				C115.1,101,115.9,108.3,121.1,108.7z"/>
		</g>
		<path class="st1" d="M176.5,89.2c-1.4-0.6-2.9-1.1-4.3-1.7c0,0-1.4-0.5-2-2.7c0,0,0.1,1.2-0.3,2.3c-0.5,1.4-2,2-2,2
			s0.2,0.9,3.2,2.3c0,0,2.4,1.1,3.9,0.7C174.9,92.2,176.5,91.7,176.5,89.2z M184.7,96c-0.2,0.4-0.4,0.8-0.5,1
			c-1.7,2.2-4.5,1.3-4.5,1.3c-3.6-1.2-3-4.3-3-4.3c-1.4,3.9-5.8,2-5.8,2c-5.1-2.1-4.8-8.5-4.8-8.5c3-3.4,2.9-6.8,2.8-6.8
			c1.1,2.2,4.2,3.4,4.2,3.4s4,1.6,6.4,2.5c3.8,1.5,2.3,4.9,2.3,4.9s-3-1.2-4.4-1.8c0,0-1.1,2.8,2.1,4.1c0,0,2,0.8,2.6-0.8
			c0.8-2,1.6-3.9,2.3-5.8c0.9,1.1,1.7,2.3,2.6,3.4C186.9,90.5,184.7,96,184.7,96z M167.3,99.8c0,0,0.3,1.8,1.6,2.3
			c0,0,1.5,0.6,2.8-0.6C170.2,101,168.7,100.4,167.3,99.8z M163.6,100.3c-0.5,0.8-0.1,2.8-0.1,2.8c-0.1,0-0.2-0.1-0.4-0.1
			c-0.5-1.9-0.9-3.8-1.4-5.7c3.6-3,6-1.6,6-1.6c1.8,0.7,3.5,1.4,5.3,2.1c0.2,0.1,2,5.7,2,5.7c-0.4,0.3-0.9,0.5-1.3,0.8
			c-3.4,1.9-4.6,1.4-4.6,1.4c-2.2-0.9-2.6-6.2-2.6-6.2C164.6,98.5,163.6,100.3,163.6,100.3z M160.3,129.2l-4.4-1.8
			c0,0,0.2,1.7,1.6,2.3C157.5,129.7,159,130.4,160.3,129.2z M163.7,131.3c-0.4,0.2-0.9,0.5-1.3,0.7c-3.4,1.8-4.6,1.3-4.6,1.3
			c-2.2-0.9-2.6-6.1-2.6-6.1c-2-1-3,0.7-3,0.7c-0.5,0.8-0.1,2.8-0.1,2.8c-0.1,0-0.2-0.1-0.4-0.1c-0.5-1.9-0.9-3.7-1.4-5.6
			c3.4-2.9,6.1-1.5,6.1-1.5c1.8,0.7,3.5,1.5,5.3,2.2C161.9,125.6,163.7,131.3,163.7,131.3z M170.4,117.4c-3.5-1.4-6.1-2.5-9.5-3.9
			c0,0-0.7-2.2-0.4-3.4c0,0,0.3-1.8,1.6-1.9c0.3-0.1,0.9,0.2,1,0.2c1.8,0.7,3.6,1.4,5.3,2.1c0,0-2.9,2.2-0.1,5
			c0.2,0.2-0.3-2.1,3-3.3c0,0-1.7-5.4-2.2-5.6c-1.6-0.6-3.2-1.3-4.8-1.9c0,0-1.6-0.7-3.1-0.3c-1,0.2-2,0.7-3.2,1.8
			c0.5,2.3,1,4.6,1.5,6.9c0,0-0.8-0.4-1.2-0.5c0,0-2.1-0.7-3.3,0.3c0.3,1.3,0.6,2.3,0.9,3.6c0,0,0.5-0.6,1.5-0.2
			c1.1,0.5,1.9,0.8,3,1.2c0,0,0.3,1-0.8,1c-1.7-0.2-3.3-0.4-5-0.5c0,0-4-0.2-2.3,4.6c0,0,0.3-0.8,1.4-0.8c2.3,0.1,4.1,0.4,5.7,0.5
			c0,0,1.1,0.2,1.5-1.1c0.1-0.4,0.2-0.8,0.3-1.2c0,0,1.4,6.6,4.9,4.4c-0.4-1.3-0.7-2.6-1.1-3.9c0,0-2.3,1.3-3.6-2.5
			c2.8,1.1,4.7,1.9,7.5,3.1c0,0,2.3,1.2,3.5,0.1c-0.3-1.3-0.7-2.6-1-4C171.6,117.1,171,117.7,170.4,117.4z M158.4,138.5
			c0.2,0.9,0.5,1.7,0.7,2.5c0,0-2.3,0.8-2.4,2.1c0,0-2.8-2.6,0.5-5.1c0,0-6.5-2.7-7-2.9c-1.5-0.6-1.9,0.1-1.9,0.1
			c-0.3-1.2-0.7-2.5-1-3.7c0,0,1.7-1.1,3.6-0.4c0,0,6.8,2.9,7.3,3.1c0.5,0.2,1.2-0.2,1.2-0.2c0.3,1.3,0.7,2.7,1,4
			C160.3,138.1,159.5,138.6,158.4,138.5z M215.9,12c-0.5-0.5-1.1-0.8-1.2-0.8l-0.4-0.1c-1.4-1.2-3.9-2.6-6.8-3.9
			c-3.4-1.4-6.6-2.2-8.3-2.2c-2-0.5-3.3,0.7-3.8,1.7l-1.9,4.7l1.2,0.5l-0.7,1.8c-0.5,0.2-1.3,0.5-1.7,1.5c-0.4,0.9-0.1,1.7,0,2.1
			c0,0,0,0.1,0,0.1c-0.9,1.8-10.8,21-17.3,33.6c0,0-1.4,2.4-2.9,4.7c-1,1.4-8.6,7.4-13.7,11.1c-0.2,0.2-2.1,1.6-3.7,5.4L126,143.5
			c-0.1,0.3-1,3-0.9,5.5c0.1,1.9,0.5,3.3,1.9,4.5c1.5,2.7,8.6,7,17.6,10.5c7.7,3,14.8,4.5,18.5,4.2c0.4,0.1,0.9,0.1,1.3,0
			c1.3-0.1,2.4-0.8,3.6-1.9c1.8-1.7,3.1-4.3,3.2-4.7l28.7-71.1c1.5-3.8,1.2-6.2,1.1-6.4c-1.1-6.2-2.5-15.8-2.2-17.5
			c0.5-2.7,1.2-5.3,1.2-5.3c4.1-13.8,10.3-34.5,10.9-36.3c0,0,0.1,0,0.1-0.1c0.4-0.2,1.1-0.6,1.5-1.5c0.4-1,0-1.9-0.2-2.3l0.7-1.7
			c0,0,0,0,0,0l1.6,0.6l0.6-1.8c0,0,0.6-1.9,1.1-3C216.9,14.1,216.7,12.9,215.9,12z M208.9,20.2c-0.3,0.7-0.2,1.4,0,1.9
			c-0.4,0.3-0.9,0.7-1.2,1.5c-0.4,1-9.3,30.7-11.1,36.7c0,0.1-0.7,2.8-1.3,5.7c-0.5,3,1.7,16.2,2.2,18.7c0,0,0.2,1.7-0.9,4.5
			l-28.7,71.1c-0.3,0.6-1.3,2.4-2.4,3.4c-0.4,0.3-0.6,0.6-0.9,0.7c-2.6-2.7-8.9-6.3-16.7-9.3c-7.7-2.9-14.7-4.5-18.5-4.2
			c-0.7-0.5-0.7-1-0.8-2.1c-0.1-1.5,0.5-3.5,0.6-4l28.7-71.1c1.1-2.8,2.4-3.9,2.4-3.9c2.1-1.6,12.9-9.5,14.6-12c1.6-2.4,3-4.8,3-5
			c2.9-5.5,17.1-33.1,17.5-34.1c0.3-0.8,0.3-1.4,0.2-1.9c0.5-0.2,1-0.6,1.3-1.4l0.2-0.6c0.1,0,0.1,0,0.2,0c0.2,0.3,0.6,0.7,1.2,1
			c-0.1,0.3-0.2,0.5-0.2,0.6c-0.3,0.7-1.3,0.5-1.6,1.1c-0.3,0.6,0.5,1.2,0.1,2.2c-0.4,1-17.5,33.9-17.5,33.9s-1.4,2.5-2.9,4.8
			c-1.6,2.4-13.3,11.9-13.3,11.9s-1.7,1.2-3,4.6c-1.3,3.1-24.2,60-28.8,71.4c-0.1,1.1,0,2.4,1.3,2.9c1.1,0.4,1.5,0,3.8,1
			c-0.8-0.4-1.2-2.1-0.8-3c6.3-15.6,27.5-68.1,28.7-71c1.4-3.4,12.1-12.7,14-15.9c1.9-3.2,19.2-39.1,19.6-40.1
			c0.4-1-0.4-1.5-0.1-2.2c0.3-0.6,1-0.5,1.3-1.2c0-0.1,0.2-0.4,0.3-0.7c0.4,0.1,0.8,0.1,1.2,0.1l0.3,0.4l0.2,0.2
			c0.5,0.4,1,0.4,1.4,0.4c0.1,0,0.5,0,0.8,0c0.2,0.3,0.6,0.9,1.4,1.2c0.7,0.3,1.2,0.2,1.7,0.2c0.2,0.3,0.6,0.8,1.3,1
			c0.6,0.2,1,0.2,1.4,0.2L208.9,20.2z M212.5,15.6c-0.2-0.3-0.6-0.6-1.1-0.8c-0.5-0.2-1-0.2-1.4-0.2c-0.1,0-0.2,0-0.3,0
			c-0.2-0.3-0.6-0.8-1.3-1c-0.7-0.3-1.2-0.2-1.7-0.2c-0.2-0.3-0.6-0.8-1.3-1c-0.7-0.3-1.2-0.2-1.7-0.2c-0.2-0.3-0.6-0.8-1.3-1
			c-0.7-0.3-1.2-0.2-1.7-0.2c-0.2-0.3-0.6-0.8-1.3-1c-0.6-0.2-1-0.2-1.4-0.2l0.5-1.2l14.4,5.8C212.8,14.8,212.6,15.2,212.5,15.6z"/>
	</g>
</g>
</svg>
