<?xml version="1.0" encoding="utf-8"?>
<!-- Generator: Adobe Illustrator 21.1.0, SVG Export Plug-In . SVG Version: 6.00 Build 0)  -->
<svg version="1.1" id="Layer_1" xmlns="http://www.w3.org/2000/svg" xmlns:xlink="http://www.w3.org/1999/xlink" x="0px" y="0px"
	 viewBox="0 0 32 32" style="enable-background:new 0 0 32 32;" xml:space="preserve">
<style type="text/css">
	.st0{fill:url(#SVGID_1_);}
</style>
<linearGradient id="SVGID_1_" gradientUnits="userSpaceOnUse" x1="5.5214" y1="16.7519" x2="27.3588" y2="16.7519">
	<stop  offset="0.1065" style="stop-color:#A51F23"/>
	<stop  offset="0.3136" style="stop-color:#E82629"/>
	<stop  offset="0.7574" style="stop-color:#E82629"/>
	<stop  offset="0.9467" style="stop-color:#A51F23"/>
</linearGradient>
<path class="st0" d="M24.2,23.3c0-2.9,0.3-7.8,0.3-7.8c0-0.6,3,0,2.9,1.6c0,0.3-0.6,3.3-0.9,7.6C26.5,25.3,24.2,24.8,24.2,23.3z
	 M25.3,25.3c-1-0.1-1.4,0.7-1.6,1.7c-0.1,0.7,0.4,1.7,1.3,1.7c1,0.1,1.4-0.7,1.6-1.7C26.6,26.2,26.2,25.5,25.3,25.3z M13.6,15.7
	c1.4-4.2,2.3-6.3,3.6-10.5c0.7-2.4-1.9-3.3-2-2.9c-1.1,2.4-2,5.2-2.9,7.8c-0.3-1.7-0.6-3.4-1-5.2c-0.3-1.7-3.2-1.7-3-1.1
	c0.9,3.7,1.9,8.9,2.4,11.3C10.8,15.9,13.3,16.4,13.6,15.7z M12.4,17.9c-1,2.4-2,5-3,7.6c-0.3-1.7-0.6-3.4-0.9-5.2
	c-0.3-1.7-3.2-1.7-3-1.1c0.7,3.9,1.4,9,2,11.5c0.1,0.6,2.6,1.3,2.9,0.6c1.4-4.2,2.4-6.2,3.9-10.3C15,18.5,12.6,17.4,12.4,17.9z
	 M20.7,18.2c0.7,3.9,1.1,7.8,1.7,11.6c0.1,0.6-2.7,0.3-2.9-1c0-0.1,0-0.4-0.1-0.6c-1.1,0.6-2.3,1-3.3,1.4c-0.1,0.4-0.3,0.7-0.4,1
	c-0.3,0.6-2.6-0.6-2.2-2c1.6-4.9,3.9-10.1,4.3-11.2C18.2,16.7,20.7,17.4,20.7,18.2z M19.2,26.2c-0.1-1.1-0.4-2.3-0.6-3.3
	c-0.6,1.3-1.1,2.9-1.7,4.2C17.7,26.8,18.5,26.5,19.2,26.2z M20.5,5.6c1,0.2,1.5-0.6,1.8-1.7C22.5,3.2,22,2.1,21.1,2
	c-1-0.2-1.5,0.6-1.8,1.7C19.2,4.6,19.6,5.5,20.5,5.6z M20.5,15.9c0,0,0.8-5,0.9-8c0.1-1.5-2.2-2.3-2.3-1.7c-0.6,4.4-1.5,7.5-1.5,7.8
	C17.3,15.6,20.4,16.5,20.5,15.9z"/>
</svg>
