<?xml version="1.0" encoding="utf-8"?>
<!-- Generator: Adobe Illustrator 21.1.0, SVG Export Plug-In . SVG Version: 6.00 Build 0)  -->
<svg version="1.1" id="Layer_1" xmlns="http://www.w3.org/2000/svg" xmlns:xlink="http://www.w3.org/1999/xlink" x="0px" y="0px"
	 viewBox="0 0 226.2 129.3" style="enable-background:new 0 0 226.2 129.3;" xml:space="preserve">
<style type="text/css">
	.st0{fill-rule:evenodd;clip-rule:evenodd;fill:#FFFFFF;}
	.st1{fill:url(#SVGID_1_);}
	.st2{fill:#28AAE1;}
	.st3{fill:#C22127;stroke:#C22127;stroke-width:1.434;stroke-linecap:round;stroke-linejoin:round;stroke-miterlimit:10;}
	.st4{fill:#FFFFFF;stroke:#FFFFFF;stroke-width:1.434;stroke-linecap:round;stroke-linejoin:round;stroke-miterlimit:10;}
	
		.st5{fill:url(#SVGID_2_);stroke:url(#SVGID_3_);stroke-width:1.434;stroke-linecap:round;stroke-linejoin:round;stroke-miterlimit:10;}
	.st6{fill:url(#SVGID_4_);}
	.st7{fill:#FFFFFF;}
	.st8{fill:#ED2D30;}
	.st9{fill:#253A7A;stroke:#253A7A;stroke-width:0.6701;stroke-linecap:round;stroke-linejoin:round;stroke-miterlimit:10;}
	.st10{fill:#ED2D30;stroke:#ED2D30;stroke-width:0.6607;stroke-linecap:round;stroke-linejoin:round;stroke-miterlimit:10;}
	.st11{fill:#253A7A;stroke:#253A7A;stroke-width:0.6938;stroke-linecap:round;stroke-linejoin:round;stroke-miterlimit:10;}
	.st12{fill:#ED2D30;stroke:#ED2D30;stroke-width:0.7015;stroke-linecap:round;stroke-linejoin:round;stroke-miterlimit:10;}
	.st13{fill:url(#SVGID_5_);}
	.st14{fill:url(#SVGID_6_);}
	.st15{fill:url(#SVGID_7_);}
	.st16{fill:url(#SVGID_8_);}
	.st17{fill:url(#SVGID_9_);}
	.st18{fill:url(#SVGID_10_);}
	.st19{fill:url(#SVGID_11_);}
	.st20{fill:url(#SVGID_12_);}
	.st21{fill:url(#SVGID_13_);}
	.st22{fill:url(#SVGID_14_);}
	.st23{fill:url(#SVGID_15_);}
	.st24{fill:url(#SVGID_16_);}
	.st25{fill:url(#SVGID_17_);}
	.st26{fill:url(#SVGID_18_);}
	.st27{fill:url(#SVGID_19_);}
	.st28{fill:url(#SVGID_20_);}
</style>
<g>
	<g>
		<path d="M186.8,66c-2.1,2.8-9.2,6.7-12.5,5.2c-1.3-0.8-2.5-3.1-2.2-6.4c0,0,11.2-5.7,14.8-12.4C186.9,56.5,186.9,61.8,186.8,66z
			 M172.2,49.7c1.3,2,1.4,4.1,1.4,4.5c0,1.6-0.7,2.9-1.5,4C172.2,55.3,172.2,52.5,172.2,49.7z M135,70.1c0-4,0-4.5,0-8.5
			c0.1,0.1,0.2,0.3,0.3,0.4c1.3,4.4,2.5,8.7,3.8,13.1C139.1,75.1,135,74.1,135,70.1z M135,42.8c0.3,0.3,1.8,1.7,1.8,4.1
			c0,1.5-0.6,3.2-1.8,4.9C135,48.7,135,45.8,135,42.8z M109.3,68.9c-1.7,0.3-3.4,0.6-5.2-0.6c-0.6-0.5-0.9-1.7-0.9-3.4
			c0-6.7-0.1-11.5-0.1-18.1c1.3,0.3,10.5,5.1,15.2-6.6l0,10.1l0,13.5C116.3,65.3,112.1,68.5,109.3,68.9z M83.6,67.8
			c-3.2,2.2-6.9,4.1-8.9,3.7c0,0,0,0,0,0c-0.1,0-2.5-0.3-3.2-1.8c-0.5-1.1-0.8-2.2-0.7-3.9c0,0,11.6-6,15.1-12.8c0,2,0,4,0,6l0,5.8
			c0,0,0.1,3.6,0.4,4.3L83.6,67.8z M70.6,49.3c1.5,2.1,1.6,4.4,1.6,4.5c0,1.6-0.7,3-1.5,4.1C70.7,55.1,70.7,52.2,70.6,49.3z
			 M36.1,60.7c-0.3,6.8-1.5,9.9-2.2,11.2c-1.6-1.3-4.7-3.5-8.7-3.3c-1,0.1-1.5,0.3-1.6,0.3c2.2-1.9,2.2-6.3,2.2-6.3l0-14
			c2.7-1.2,4.2-1.4,6.2-1.1c1.2,0.3,1.5,0.8,1.5,0.8c0,0,0,0,0,0.1c2.4,2.8,2.6,9.2,2.6,11.1C36.1,60.3,36.1,60.7,36.1,60.7z
			 M24,26.6c6,0,6.1-0.3,6.9,0.9c1,1.5,1.1,4,1.1,4v0.2c0,4.3-1.5,7.4-4.4,9.1c-0.7,0.4-1.3,0.6-1.9,0.8c-0.1-4.1-0.1-8.3-0.1-12.4
			C25.5,29.2,24.1,26.7,24,26.6z M220.7,37.9c-6.3,2.1-12-5.5-12-5.5l-6.2,4.8c-1.3-2.7-5-4.5-5-4.5c-3.7,2.8-8.3,6.2-12.1,8.9
			l-0.8,0.6c0,0,0,0,0,0c-1.3-1.4-3.8-3.8-6.9-6.4c-1.3-1-6.1-4.8-6.1-4.8s-1.1,0.8-1.4,1.1c-15.1,12.8-15.2,13.1-15.2,13.1l0,9.5
			c0,3.6,0,7.1,0,10.7c0,2.6,0.5,7.9,6.2,13.2c-1.3-0.2-3.7-1-4.6-3.3c-2.6-7.2-3.9-12.2-5.4-17.4c0,0-0.8-5.2-6.3-5.1
			c4.8-4.2,12.4-11.7,4.4-18.7c0,0-2.5-2.3-2.5-2.3c-3.6,2.8-8.2,6.3-11.8,9c0-3.4,0-7,0-11c0,0,0.9-10.3-6.6-13.5l-2.9,2
			c-3,2.2-7.5,5.5-10.6,7.7c0,0,3.4,1,3.4,3.5l0,6c-2.8,1.3-6.1,2.2-9.3,1.4c-1.9-0.7-4.1-2-6.4-4.5l-0.7-0.8
			c-1.1,0.9-5.7,4.7-9,7.7c-5.6,5.1-6.8,6.8-7,7.6c-0.5-1-1.4-2.2-2.6-3.6c-1.5-2.2-4.1-5.1-8.6-8.8c-1.4-1.1-3.4-2.7-4.8-3.7
			l-0.1,0.1c-0.2,0.2-4.6,3.9-8.4,7.3c-7.8,6.9-7.8,7.2-7.8,7.9v0l0,5c0,0.6,0,1.2,0,1.8c-0.5-2.2-1.2-4-2.9-6.8
			c-0.7-1.3-1.7-2.6-2.9-3.7c-1-0.9-2-1.7-3.2-2.3c2.8-2,5.9-5.8,5.5-13.1c0,0-0.1-2.9-1.7-6c-1-1.9-2.9-4.8-3.9-5.8
			c-1.6-1.8-4-3.4-7.4-4.1c-0.5-0.1-1.7-0.2-2.8-0.2c-7.6,0-21.3,0.1-21.3,0.1c-2.2,3.6-8.5,14.3-8.5,14.3l2.9,1.7l10.3,0
			c-0.9,0.4-1.8,0.8-2.6,1.4c-2.5,1.7-5.5,5.2-5.5,11.9c0,0.1,0,0.3,0,0.4c0.1,4.4,0.1,10.2,0.2,14.9l0.1,5.9c0,0,0,2.6,0,2.8
			c0,9.2-3,13.8-4.4,15.7l-1.9,2.5c0,0,2.6,0.6,4.1,1.8c0-0.2,10.8-5.3,25.3-0.3c-0.1,0,17.8-6.5,20.7-21.9c0,1.1,0,2.3,0,3.4l0,0.1
			c0,0.1,0,0.3,0,0.5c0,2.1,0.8,9.1,10,15.3c1.5,1.2,3.2,2.5,5.4,3.6c5.4-4.1,12.7-9.8,17.9-13.6c1.2,3,3.5,6.7,8.6,10.1
			c1.5,1.2,3.3,2.5,5.6,3.6c5.3-3.8,11.5-8.3,17.2-12.4c0,0,0,5.9,4.3,10.5c1.1,1.1,1.9,1.9,3.6,2.6c3.6-2.7,9.4-7.6,13.1-10.3
			c0,0.1,0.1,0.3,0.1,0.4l0.6,2.3c0,0,0,0.1,0,0.1c0.5,1.3,2.5,5.5,6.9,6.7c2.3,0.6,9.1,1.2,15.1-5.5c0,0,0,0,0,0
			c0.8,0.7,3,2.9,7.2,5.1c5.2-3.9,12.4-9.2,17.6-13.1c0,0.9,0,1.5,0,1.6v0.1c0,7.4,6,11.5,6.3,11.7l1,0.7c0,0,9.7-7.5,13.1-10.2
			c0,0-3.5-1.3-3.5-5.3c0-1.7,0.1-23.2,0.1-23.2c2.8,1.1,5.4,1.2,7.8,0.4C219.2,44.6,220.9,37.7,220.7,37.9z"/>
		<path class="st0" d="M23.1,46.5c0.1,5.2,0.1,10.4,0.2,15.6c0,0,0.2,5-5.7,9.9c0,0,3.7-1.9,7.7-2.1c5-0.2,8.8,3.8,8.8,3.8
			c0,0,2.7-1.9,3.2-12.9c0,0,0.5-9.1-2.9-13.1C34.4,47.8,31,43.2,23.1,46.5z M33.9,12c1.4,0,3,0.2,3.7,0.4
			c9.3,2.5,9.8,12.6,9.8,12.6c0.7,13-9.8,14.9-9.7,14.9c14.2-0.6,13.8,15.6,13.8,15.6c0.1,18.8-20.7,26-20.6,26.1
			c-14.5-5.1-25.1-0.3-25-0.2C11.4,75,11,63.7,11,63.7s-0.2-14.5-0.3-23.3c-0.2-13.8,12.4-13.5,12.4-13.5s-0.1,10.9,0,16.3
			c0,0,10.2-0.1,10.1-11.8c0,0-0.2-7.2-5.8-7.1c-7.2,0-14.3,0.1-21.2,0.3c2.4-4.2,4.9-8.4,7.4-12.5C13.5,12.1,33.9,12,33.9,12z
			 M68.1,61.9c0,0,5.3-3.1,5.3-8.1c0,0,0-5.7-5.4-8.2C68,51,68.1,56.5,68.1,61.9z M74.5,72.7c3.2,0.5,9-3.4,9-3.4c0,0.4,0,0.9,0,1.3
			c-5.3,3.9-10.7,7.8-16,11.8c-14-7.6-12.7-17-12.7-17c-0.1-6.5-0.1-12.9-0.2-19.4c0-0.7,15.2-13.7,15.2-13.7c1.3,1,2.7,2.1,4,3.1
			C84.1,43.7,84.2,48,84.2,48c0,8.1-16.1,16.2-16,16.2C67.6,71.9,74.5,72.7,74.5,72.7z M169.6,45.9l0.1,16.1c0,0,5.1-2.9,5.2-7.9
			C174.8,54.1,174.9,48.5,169.6,45.9z M171.7,32.5c1.3,1.1,2.6,2.1,3.9,3.2c9.9,8.4,9.9,12.7,9.9,12.7c0,8.1-15.9,16.1-16,16.1
			c-0.6,7.7,6.2,8.6,6.2,8.6c3.1,0.5,8.9-3.3,8.9-3.3c0,0.4,0,0.9,0,1.3c-5.3,3.9-10.5,7.7-15.9,11.6c-13.5-6.8-12.5-17.1-12.5-17.1
			c0-6.5,0.1-12.9,0.1-19.4C156.3,45.5,171.7,32.5,171.7,32.5z M119.5,29.4c0,12.7,0,22.2,0,34.9c0,0-6.1,5.1-10.2,5.7
			c0,0-6.1,1.2-8.2-2.7c-0.5-0.8-0.6-2.9-0.6-3.4c-0.1-6.5-0.1-13-0.2-19.6c0,0,10.5,6.3,15.7-6.2c0.3-0.8-6.1,3.8-14.3-5
			c0,0-14.9,12.4-14.8,14.2c0,5.8,0.1,11.7,0.1,17.5c0,0-0.1,5.9,3.1,10c1.9,2.7,4.9,5.5,9.7,7.6c6.5-4.6,13.1-9.1,19.6-13.6
			c0,0-0.2,3,0,4.4c0,0,0.7,7.5,5.3,10c3.6-2.7,6.5-4.8,10.1-7.5c0,0-2.6-0.9-2.6-4.4c0-4.2,0-7,0-11.1c0,0,2.8-2.4,4,1.3
			c1.6,5.4,3.1,10.9,4.7,16.3c0-0.1,4.5,12.9,17.5,1.4c0,0-2.8,0.1-4.2-3.3c-2.6-7.2-4.2-13.4-5.8-18.7c0,0-0.7-3.8-5.4-3.2
			c-1.3,0.2-2.7,0.4-4,0.6c0,0,18.9-13,7.5-21.2c-3.6,2.8-7.3,5.6-10.9,8.3c0,0,7,5.5-3.3,14.7c0-10.2,0-17.3,0-27.5
			c0,0,0.7-8.8-4.1-11.3c-3.7,2.7-7.4,5.5-11.2,8.2C117.1,25.9,119.5,27,119.5,29.4z M201.2,40c2.4-1.8,4.7-3.7,7.1-5.5
			c0,0,5.5,6.2,9.5,4.8c0,0-4.6,12.1-16.7,4.9c0,0,0,23.8,0,25.9c0,5.4,2.9,5.8,2.9,5.8c-3.4,2.6-6.8,5.2-10.3,7.9
			c0,0-5.8-3.9-5.7-10.7c0,0,0.2-25,0.2-27c0-2-2-3.4-2-3.4c3.8-2.8,7.5-5.6,11.3-8.3C197.4,34.3,200,36.2,201.2,40z"/>
		
			<linearGradient id="SVGID_1_" gradientUnits="userSpaceOnUse" x1="-6247.0967" y1="-3356.1279" x2="-6180.2441" y2="-3356.1279" gradientTransform="matrix(4.489700e-11 -1 1 4.489700e-11 3471.0698 -6167.5186)">
			<stop  offset="3.723400e-02" style="stop-color:#FFFFFF"/>
			<stop  offset="5.285194e-02" style="stop-color:#E3E3E3"/>
			<stop  offset="7.609658e-02" style="stop-color:#BFBFBF"/>
			<stop  offset="9.957021e-02" style="stop-color:#A3A4A4"/>
			<stop  offset="0.1231" style="stop-color:#8F9090"/>
			<stop  offset="0.1466" style="stop-color:#838484"/>
			<stop  offset="0.1702" style="stop-color:#7F8080"/>
			<stop  offset="0.2872" style="stop-color:#FFFFFF"/>
			<stop  offset="0.3083" style="stop-color:#FBFBFB"/>
			<stop  offset="0.3279" style="stop-color:#F0F0F1"/>
			<stop  offset="0.3468" style="stop-color:#DDDEDF"/>
			<stop  offset="0.3653" style="stop-color:#C3C4C6"/>
			<stop  offset="0.3723" style="stop-color:#B7B8BA"/>
			<stop  offset="0.4415" style="stop-color:#DFE0E0"/>
			<stop  offset="0.6011" style="stop-color:#707174"/>
			<stop  offset="0.6915" style="stop-color:#FFFFFF"/>
			<stop  offset="0.8404" style="stop-color:#FFFFFF"/>
			<stop  offset="0.883" style="stop-color:#95989A"/>
			<stop  offset="0.9358" style="stop-color:#E1E2E3"/>
		</linearGradient>
		<path class="st1" d="M207.2,36.4c0.2-0.2,0.7-0.6,1-0.8c0.6,0.6,1.6,1.5,2.8,2.4c1.6,1.2,3.6,2.3,5.5,2.3
			C213.3,41.8,208.7,37.8,207.2,36.4z M199.5,41.2c0.2-0.2,0.9-0.5,1.1-0.7c0,0-1.2-3.8-3.3-5.3c-0.3,0.2-0.8,0.6-1,0.8
			C197.1,36.8,198.6,38.4,199.5,41.2z M100.4,67.5c-0.8-1.4-0.6-3.2-0.6-3.2c-0.1-6.6-0.2-20-0.2-20c-0.4-0.2-1.2-0.5-1.2-0.5
			l0.2,21.6c0,2.2,1.6,4.2,3,5c3.7,2,7.1,0.7,7.1,0.7c-0.4,0.1-3.4,0.4-5.8-1.1C101.8,69.4,100.9,68.5,100.4,67.5z M133.8,75.7
			c-0.3-0.1-0.7-0.3-1-0.5c-0.6-0.4-1.1-1-1.2-1.9c0,0,0-0.1,0-0.1c0-0.1,0-0.2,0-0.3c0-3.9,0-8.3,0-12.3c-0.4,0.2-1.2,0.9-1.2,0.9
			c0,4.2,0,8.2,0,12.4C130.4,75.9,132.9,76,133.8,75.7C133.8,75.7,133.8,75.7,133.8,75.7z M149.5,39.3c-0.2-1.7-1.1-3.4-2.9-4.9
			c-0.3,0.2-0.8,0.7-1,0.8c3.1,1.9,3.9,5.8,2.7,9c0.8-1.1,1.4-3.1,1.4-4.5C149.5,39.6,149.5,39.4,149.5,39.3z M101.7,34.3
			c-0.2,0.2-0.6,0.5-0.9,0.7c7.9,8.1,13.9,4.4,14,4.1c-0.6,0.1-1.5,0.3-2.5,0.3c-2,0-4.6-0.6-7.5-2.6
			C103.8,36.2,102.8,35.4,101.7,34.3z M155.9,46.1L155.9,46.1C155.9,46.1,155.9,46.1,155.9,46.1L155.9,46.1
			C155.9,46.1,155.9,46.1,155.9,46.1z M146.3,55.3c-0.5-0.3-1.2-0.5-2.1-0.5c-0.3,0-0.6,0-0.9,0.1c-1.3,0.2-5.5,0.9-5.5,0.9l5.6-0.1
			c3,0,3.5,3,3.5,3c1.5,5.2,3.2,11.5,5.8,18.7c0.9,1.8,2.9,2.5,4.4,2.3c-1.9-0.5-2.9-1.8-3.4-3.2c-2.6-7.2-4.2-13.4-5.8-18.7
			C147.8,57.7,147.6,56.3,146.3,55.3z M130.5,30.5c0,10.2,0,17.3,0,27.5c0.2-0.2,1-0.8,1.2-1l0-0.5c0-10.2,0-17.3,0-27.5v0v0
			c0,0,0-0.4,0-1c0-0.4,0-0.9,0-1.4c-0.2-2.5-0.9-6.1-3.3-7.9c-0.3,0.2-0.8,0.8-1.1,1C131,21.6,130.5,30.5,130.5,30.5z M33.4,74.2
			c-0.2-0.2-0.9-0.9-1.8-1.5c-0.1-0.1-0.2-0.1-0.3-0.2c-1.4-0.9-3.4-1.8-5.6-1.8c-0.1,0-0.3,0-0.4,0c-1.3,0.1-2.6,0.3-3.8,0.7
			c0,0,0.7-0.1,2.4-0.2c5.5-0.1,8.5,3.9,8.5,3.9C32.4,75.1,33.1,74.6,33.4,74.2z M202.4,76.1c-0.1,0-2.1-1.4-2.1-4.3
			c0,0,0-22.7,0.1-27.8c-0.2-0.1-1-0.8-1.2-0.9L199,72.3C199,75,201.3,76.5,202.4,76.1z M22.4,46.7c-0.2,0.1-1,0.3-1.3,0.4l0.1,14.4
			c0,0,0.4,4.1-1.8,7.8c2.9-3.5,3.1-6.4,3.1-6.8C22.6,62.4,22.4,46.7,22.4,46.7z M68.9,34.1c1.1,0.9,2.3,1.8,3.4,2.6
			C82.5,45,82.8,49.1,82.8,49.1c0,0.9-0.2,1.8-0.6,2.7c0.7-1.2,1.2-2.5,1.2-3.7c-0.2-1.1-1.6-5.3-10.2-12.3
			c-1.1-0.9-2.2-1.7-3.3-2.6C69.7,33.4,69.2,33.8,68.9,34.1z M67.4,62l0-0.1c0-4.9-0.1-11.4-0.1-16.4c0.1,0-1.3-0.5-1.3-0.5
			c0,5.4,0.1,12.4,0.1,17.8C66.1,62.8,67,62.3,67.4,62z M74.4,73.4L74.4,73.4C74.4,73.4,74.4,73.4,74.4,73.4L74.4,73.4
			C74.4,73.4,74.4,73.4,74.4,73.4c-0.1,0-0.1,0-0.1,0c-0.1,0-0.1,0-0.2,0c-0.2,0-0.5-0.1-0.8-0.2c-0.6-0.2-1.5-0.5-2.4-1.1
			c-0.1-0.1-0.2-0.1-0.2-0.2c-1.4-0.9-2.9-2.6-3.2-5.5c-0.1-0.5-0.1-1.5-0.1-2l-1,0.7c-0.5,7.7,6.7,8.7,6.8,8.7
			c0.8,0.1,1.9,0.1,3-0.4c-0.3,0.1-0.7,0.1-1,0.1C74.9,73.5,74.6,73.5,74.4,73.4L74.4,73.4z M44.6,42.1c-1.6-0.9-3.6-1.5-6.2-1.5
			c-1.1,0-2.1,0.4-2.1,0.4c13.3-0.3,13.5,15,13.5,15c0,3.1-0.5,7.4-1.7,10.3c1.6-3,2.6-6.5,2.6-10.6c0,0,0,0,0-0.1c0,0,0,0,0-0.1
			c0,0,0-0.1,0-0.1c0,0,0-0.1,0-0.1c0-0.2,0-0.7-0.1-1.3C50.3,50.9,49.1,45.1,44.6,42.1z M14.1,12.8l-0.7,1.2l20-0.1
			c3.8,0,6.6,1.5,8.3,3.2c3.7,3.6,4.1,8.6,4.1,8.6c0.3,5.2-1,8.5-3.1,10.6c0.5-0.5,1-1,1.5-1.7c1.4-1.9,2.4-4.5,2.4-8.4
			c0-0.4,0-0.8,0-1.2c0,0,0-0.1,0-0.1c0,0,0-0.1,0-0.1c0-0.1,0-0.2,0-0.4c0-0.3-0.1-0.8-0.2-1.3c-0.2-1.1-0.7-2.5-1.4-4
			c-0.2-0.4-0.4-0.7-0.7-1.1c-1.4-2.1-3.8-4.2-7.4-5c-0.5-0.1-1.7-0.3-2.6-0.3C27.2,12.7,14.1,12.8,14.1,12.8z M174,36.8
			c10,8.3,10.1,12.4,10.1,12.4c0,0.9-0.2,1.8-0.6,2.7c0.8-1.2,1.2-2.5,1.3-3.6c-0.2-1.1-1.4-5.3-10-12.3c-1.1-0.9-2.2-1.7-3.3-2.6
			c-0.2,0.2-0.6,0.5-0.9,0.7C171.8,35.1,172.9,36,174,36.8z M168.9,62.4l0-0.2c0-4.9-0.1-11.4-0.1-16.4c0.1,0-1-0.5-1-0.5
			c0,5.4,0.1,12.2,0.1,17.6C167.9,63,168.5,62.7,168.9,62.4z M175.8,73.8L175.8,73.8L175.8,73.8L175.8,73.8
			C175.7,73.8,175.7,73.8,175.8,73.8c-0.1,0-0.1,0-0.1,0c-0.1,0-0.1,0-0.2,0c-0.2,0-0.5-0.1-0.8-0.2c-0.6-0.2-1.5-0.5-2.4-1.1
			c-0.1-0.1-0.2-0.1-0.2-0.2c-1.4-0.9-2.9-2.6-3.2-5.5c-0.1-0.5-0.1-1.5-0.1-2l-0.9,0.7c-0.5,7.7,6.6,8.7,6.6,8.7
			c0.9,0.1,2.1,0.1,3.1-0.4c-0.3,0.1-0.7,0.1-1,0.1C176.2,73.8,176,73.8,175.8,73.8L175.8,73.8z M22.4,43.2c0-0.7,0-12.3-0.1-14.9
			c-0.5,0.1-0.9,0.1-1.3,0.2c0.1,0,0.1,0.1,0.1,0.1l0.1,14.8c0,1.2,1.5,1.1,2.1,0.8C23.2,44.1,22.4,43.9,22.4,43.2z"/>
	</g>
	<g>
		<path class="st2" d="M169.3,105.9c0,0,0,0,0.1,0.1C169.4,105.9,169.4,105.9,169.3,105.9C169.4,105.9,169.3,105.9,169.3,105.9z"/>
		<g>
			<g>
				<g>
					<path class="st3" d="M120,94.9c-20.8-7-42.9-12.1-65.9-14.7c0,6.8,0,13.5,0.1,20.3c14.8,0,29.5,1.1,43.8,3.2
						C105.1,100.5,112.4,97.6,120,94.9z"/>
					<path class="st4" d="M59.9,86.3c31.1,2.9,60.7,10.2,87.9,21.1c1.8-5.6,3.6-11.3,5.5-16.9c-29-7.8-59.3-11.7-90.1-11.4
						C62,81.5,60.9,83.9,59.9,86.3z"/>
					<linearGradient id="SVGID_2_" gradientUnits="userSpaceOnUse" x1="54.0398" y1="87.0509" x2="125.2363" y2="87.0509">
						<stop  offset="0.1065" style="stop-color:#A51F23"/>
						<stop  offset="0.3136" style="stop-color:#E82629"/>
						<stop  offset="0.7574" style="stop-color:#E82629"/>
						<stop  offset="0.9467" style="stop-color:#A51F23"/>
					</linearGradient>
					<linearGradient id="SVGID_3_" gradientUnits="userSpaceOnUse" x1="53.3229" y1="87.0509" x2="125.9533" y2="87.0509">
						<stop  offset="0.1065" style="stop-color:#A51F23"/>
						<stop  offset="0.3136" style="stop-color:#E82629"/>
						<stop  offset="0.7574" style="stop-color:#E82629"/>
						<stop  offset="0.9467" style="stop-color:#A51F23"/>
					</linearGradient>
					<path class="st5" d="M119.9,97.6c-21.9-1.4-44-0.4-65.8,2.8C54.1,93.7,54,87,54.1,80.2c23.3-4.7,47.2-6.8,71.2-6.5
						C123.4,81.7,121.6,89.6,119.9,97.6z"/>
					<linearGradient id="SVGID_4_" gradientUnits="userSpaceOnUse" x1="58.5228" y1="101.4817" x2="153.9435" y2="101.4817">
						<stop  offset="3.723400e-02" style="stop-color:#D1D1D1"/>
						<stop  offset="5.295624e-02" style="stop-color:#BFBFBF"/>
						<stop  offset="8.205792e-02" style="stop-color:#A3A3A3"/>
						<stop  offset="0.1114" style="stop-color:#8F9090"/>
						<stop  offset="0.1407" style="stop-color:#838484"/>
						<stop  offset="0.1702" style="stop-color:#7F8080"/>
						<stop  offset="0.2872" style="stop-color:#FFFFFF"/>
						<stop  offset="0.3083" style="stop-color:#FBFBFB"/>
						<stop  offset="0.3279" style="stop-color:#F0F0F1"/>
						<stop  offset="0.3468" style="stop-color:#DDDEDF"/>
						<stop  offset="0.3653" style="stop-color:#C3C4C6"/>
						<stop  offset="0.3723" style="stop-color:#B7B8BA"/>
						<stop  offset="0.4415" style="stop-color:#DFE0E0"/>
						<stop  offset="0.6011" style="stop-color:#707174"/>
						<stop  offset="0.6915" style="stop-color:#FFFFFF"/>
						<stop  offset="0.729" style="stop-color:#D6D6D6"/>
						<stop  offset="0.8404" style="stop-color:#FFFFFF"/>
						<stop  offset="0.883" style="stop-color:#95989A"/>
						<stop  offset="0.9358" style="stop-color:#E1E2E3"/>
					</linearGradient>
					<path class="st6" d="M153.8,90.3c-0.1-0.2-0.4-0.3-0.6-0.3c-31.7-2.8-63.2-0.9-93.7,5.4c-0.3,0.1-0.6,0.4-0.6,0.7
						c-0.2,5.8-0.3,11.6-0.3,17.4c0,0.2,0.1,0.4,0.3,0.6c0.2,0.1,0.4,0.2,0.6,0.2c0,0,0,0,0.1,0c28.7-6.3,58.4-8.5,88.3-6.2
						c0.3,0,0.7-0.2,0.8-0.5c1.8-5.5,3.6-11,5.4-16.5C154,90.7,153.9,90.5,153.8,90.3z"/>
					<g>
						<path class="st7" d="M66,91.5c0,0.5-2.4,0-2.2-1.2c0-0.2,0.4-2.6,0.7-6c0-0.4,1.8,0,1.8,1.1C66.3,87.7,66,91.5,66,91.5z
							 M65.4,83.8c0.8,0.1,1.1-0.6,1.2-1.3c0.1-0.6-0.3-1.3-1-1.3c-0.8-0.1-1.1,0.6-1.2,1.3c0,0,0,0,0,0
							C64.4,83.1,64.7,83.7,65.4,83.8z"/>
						<path class="st7" d="M74.5,82.1c-1,3.3-1.7,4.9-2.8,8.2c-0.2,0.6-2.1,0.1-2.2-0.5c-0.4-1.9-1.2-6-1.9-8.9
							c-0.1-0.4,2.1-0.5,2.4,0.9c0.3,1.4,0.6,2.7,0.8,4c0.7-2,1.4-4.1,2.2-6.1C73.1,79.5,75.1,80.2,74.5,82.1z"/>
						<path class="st7" d="M78.2,80.7c0,0.2-0.6,5.8-1,8.8c0,0.2-2.1-0.1-2-1.1c0.1-1.1,0.8-9,0.8-9C76,78.8,78.4,79.4,78.2,80.7z"
							/>
						<path class="st7" d="M85.4,80.4c-1.1,3.3-1.9,4.8-3,8.1c-0.2,0.6-2.1,0-2.2-0.5c-0.4-1.9-1-6-1.6-9c-0.1-0.4,2.1-0.4,2.4,0.9
							c0.2,1.4,0.5,2.7,0.7,4c0.8-2,1.6-4,2.4-6C84.1,77.7,86,78.5,85.4,80.4z"/>
						<path class="st7" d="M93,87.1c0.1,0.4-2.1,0.2-2.3-0.8c0-0.1,0-0.3-0.1-0.4c-0.9,0.4-1.8,0.8-2.6,1.1
							c-0.1,0.3-0.2,0.6-0.3,0.8c-0.2,0.5-2-0.5-1.7-1.6c1.2-3.8,3-7.9,3.4-8.8c0.2-0.6,2.2,0,2.3,0.6C92.2,81,92.6,84.1,93,87.1z
							 M90.4,84.3c-0.1-0.9-0.3-1.8-0.4-2.6c-0.4,1-0.9,2.2-1.3,3.3C89.3,84.7,89.9,84.5,90.4,84.3z"/>
						<path class="st7" d="M103.5,84.9c-1.6,1.2-1.8,1.2-2.5,1.4c-1.1,0.4-3.1-0.6-3-1.9c0.4-2.7,0.8-5.4,1.2-8.1
							c0.1-0.5,2.4,0.2,2.2,1.5c-0.4,1.9-0.8,4-1.1,5.9c-0.3,1.7-0.5,1.4,1.3,0.5C102.2,83.8,103.8,84.7,103.5,84.9z"/>
						<path class="st7" d="M110.8,85.4c0,0.4-2.1,0.1-2.2-0.9c0-0.1,0-0.3,0-0.4c-0.9,0.3-1.9,0.7-2.7,0.9c-0.1,0.3-0.2,0.6-0.3,0.8
							c-0.2,0.5-2-0.6-1.6-1.7c1.4-3.7,3.4-7.7,3.9-8.6c0.3-0.6,2.2,0.1,2.3,0.7C110.3,79.3,110.6,82.4,110.8,85.4z M108.4,82.5
							c-0.1-0.9-0.2-1.8-0.2-2.6c-0.5,1-1,2.1-1.5,3.2C107.3,82.9,107.8,82.7,108.4,82.5z"/>
					</g>
					<g>
						<path class="st8" d="M69.5,108.3c-0.9,0.8-1.4,1.2-1.8,1.3c-0.4,0.1-2.2-0.3-2.1-1.2c0.1-1.2,0.4-8.3,0.5-9.3
							c-0.8-0.5-0.9-0.9-0.4-1c2.8-0.5,5.4-1.8,6.9,0.9C74.6,102.8,70.8,107.1,69.5,108.3z M68.8,99.1c-0.1,0-0.1,0-0.2,0
							c0.1,0.1,0.1,0.3,0.1,0.5c0,0.2-0.3,3.9-0.6,7.2c1.6-1.6,3.1-3.8,3.2-5.7C71.4,98.6,69.7,98.9,68.8,99.1z"/>
						<path class="st8" d="M80.8,97.2c-1.7,0.2-2.1,0.5-3.6,0.9c-0.2,1.1-0.3,2.2-0.5,3.3c0.2-0.1,0.4-0.1,0.7-0.3
							c0.7-0.2,1.9,0.1,2.4,0.4c0.5,0.3,0.1,0.5-0.5,0.7c-1,0.3-2,0.6-2.9,1c0,0.3-0.1,0.7-0.1,1.1c-0.1,0.6-0.2,1.4-0.1,2.1
							c0.5-0.4,1.5-1,2.3-1.6c0.6-0.5,2.4,0.5,2,0.8c-1.6,1.4-2.6,2-3.4,2.3c-1.2,0.6-3.3-0.4-3.2-1.9c0-0.8,0.7-6.1,0.9-8.1
							c0,0,0,0,0,0c-0.3-0.2-1.1-0.9-0.5-1c1.7-0.3,2.2-0.5,3.8-0.9c0.7-0.2,1.6,0,2.1,0.4C81,96.8,81.1,97.2,80.8,97.2z"/>
						<path class="st8" d="M88.2,97.5c-1.3,3.7-2.1,5.4-3.4,9.1c-0.2,0.6-2.3,0-2.4-0.7c-0.4-2.2-1-6.8-1.6-10.2
							c-0.1-0.5,2.3-0.5,2.5,1.1c0.2,1.6,0.5,3.1,0.7,4.6c0.9-2.3,1.8-4.5,2.7-6.7C86.8,94.4,88.9,95.3,88.2,97.5z"/>
						<path class="st8" d="M96.2,100.2c-0.5,2.3-2,6.2-5.1,5.5c-2.8-0.7-2.8-3.8-2.4-6.2c0.4-2.4,1.8-6.3,5-5.5
							C96.8,94.7,96.5,98,96.2,100.2z M93.4,95.6c-0.5-0.1-1.7,1.7-2.3,4.1c-0.5,2.4-0.2,4.3,0.3,4.4c0.6,0.1,1.6-1.7,2.2-3.8
							C94.2,98.1,94,95.7,93.4,95.6z"/>
						<path class="st8" d="M102.8,103.3c-1.7,1.3-1.9,1.3-2.7,1.6c-1.2,0.5-3.3-0.8-3.1-2.2c0.5-3.1,0.9-6.1,1.4-9.2
							c0.1-0.6,2.6,0.2,2.3,1.7c-0.4,2.2-0.9,4.5-1.2,6.7c-0.3,2-0.6,1.6,1.4,0.5C101.5,102,103.2,103.1,102.8,103.3z"/>
						<path class="st8" d="M105.8,102.8c0.5,0.1,1,0.2,2.5-5.8c0.4-1.4,0.6-2.8,1-4.3c0.2-0.7,2.6,0.6,2.3,1.8
							c-0.7,3.1-1.7,10.8-6,9.9c-2.5-0.5-2.7-3-2.2-5.3c0.1-0.5,1.1-5.7,1.2-6.1c0.1-0.5,2.4,0.2,2.3,1.7
							C106.7,95.9,104.8,102.6,105.8,102.8z"/>
						<path class="st8" d="M113.2,103.6c-2.5-1.2-1.8-5.5-1-7.5c0.9-2.2,2.3-4.6,5.1-3.8c2.6,0.7,1.2,2.5,1.1,5.4c0,1-2.2-0.3-2-1.7
							c0.2-1.6,0.5-2.3,0.3-2.1c-1.1,1-1.9,2.4-2.2,3.8c-0.4,1.4-0.8,3.1-0.3,4.5c0.1,0.1,0.1,0.2,0.2,0.2c0.3,0,1.4-0.6,2.3-2.9
							c0.3-0.8,2.2,1.7,0.6,3.5C116.4,104,114.7,104.4,113.2,103.6z"/>
						<path class="st8" d="M123,94.1c-0.1,0.2-1.7,6.4-2.5,9.7c-0.1,0.3-2.2-0.5-1.9-1.5c0.3-1.3,2.3-10,2.3-10
							C120.9,91.6,123.4,92.7,123,94.1z"/>
						<path class="st8" d="M130.8,98.7c-0.7,2.2-2.7,6-5.8,4.9c-2.8-1-2.4-4.1-1.7-6.4c0.7-2.4,2.5-6,5.7-4.9
							C132,93.3,131.3,96.5,130.8,98.7z M128.5,93.8c-0.5-0.1-1.9,1.5-2.7,3.9c-0.8,2.3-0.7,4.3-0.2,4.4c0.6,0.2,1.8-1.5,2.6-3.6
							C129,96.3,129,93.9,128.5,93.8z M128.3,91.3c0.3-0.3,1.7-1.7,2-2c0.4-0.4,0.7,1,0.3,1.3c-0.3,0.3-1,1-2.1,1.1
							C128.1,91.8,128.1,91.5,128.3,91.3z"/>
						<path class="st8" d="M135.7,102.7c-0.3-1.5-0.6-2.9-0.9-4.4c-0.5,1.8-1.2,3.9-1.7,5.4c-0.1,0.3-2.2-0.6-1.9-1.6
							c0.3-1.1,0.3-1.1,2.7-9.9c0.2-0.5,2,0.3,2.2,1.4c0.2,1.5,0.5,3.1,0.7,4.6c0.8-2.8,1.7-5.8,1.7-5.8c0.2-0.6,2.6,0.6,2.1,2
							c-0.1,0.3-2.2,7-3,9.5C137.5,104.2,135.8,103.3,135.7,102.7z"/>
						<path class="st8" d="M142.4,102.9C142.4,102.9,142.4,102.9,142.4,102.9C142.4,103,142.4,103,142.4,102.9
							c-0.3,0.8-0.8,1.4-1.6,1.1c-0.7-0.2-0.9-1-0.7-1.7c0.2-0.7,0.8-1.4,1.6-1.1C142.4,101.5,142.6,102.2,142.4,102.9z M145.3,94.5
							c-0.1,0.2-1.3,2.7-2.5,6.4c-0.1,0.4-1.8-0.5-1.6-1.7c0.6-2.5,2-6.6,2-6.6C143.4,92,145.8,93.2,145.3,94.5z"/>
					</g>
				</g>
			</g>
		</g>
		<g>
			<g>
				<polygon class="st9" points="46.5,108.1 56.8,110.8 47.4,116.6 				"/>
			</g>
			<g>
				<path class="st9" d="M48,109.8c0.2-0.2,1.6-1.6,6.5-3.8c4.9-2.2,8.6-2.7,8.6-2.7s-3.5,1.7-6.6,4c-3.1,2.2-3.5,3.8-3.5,3.8
					L48,109.8z"/>
				<polygon class="st10" points="46,106.3 56.1,109.6 46.2,114.6 				"/>
				<path class="st10" d="M47.7,107.3c0.2-0.2,1.8-1.4,6.9-2.9c5.2-1.5,8.9-1.5,8.9-1.5s-3.7,1.3-7.1,3.1c-3.4,1.8-4,3.3-4,3.3
					L47.7,107.3z"/>
			</g>
		</g>
		<g>
			<g>
				<polygon class="st11" points="155.1,99.1 145.5,100.7 152.6,106 				"/>
			</g>
			<g>
				<path class="st11" d="M153.5,101c0,0,2.4,0.9,6.2,3.2s5.6,5,5.6,5s-2.2-1.8-6.3-3.1c-4-1.3-6.7-1.8-6.7-1.8L153.5,101z"/>
				<polygon class="st12" points="155.5,97.7 145.7,98.6 152.5,104.4 				"/>
				<path class="st12" d="M154,99.2c0,0,2.3,1.1,5.8,3.9s5,5.6,5,5.6s-2-2-5.9-3.8c-3.9-1.8-6.5-2.6-6.5-2.6L154,99.2z"/>
			</g>
		</g>
		<g>
			<g>
				
					<linearGradient id="SVGID_5_" gradientUnits="userSpaceOnUse" x1="45.7006" y1="115.1162" x2="97.9841" y2="115.1162" gradientTransform="matrix(0.9999 1.068071e-02 -1.068071e-02 0.9999 40.4104 -3.4615)">
					<stop  offset="3.723400e-02" style="stop-color:#FFFFFF"/>
					<stop  offset="5.285194e-02" style="stop-color:#E3E3E3"/>
					<stop  offset="7.609658e-02" style="stop-color:#BFBFBF"/>
					<stop  offset="9.957021e-02" style="stop-color:#A3A4A4"/>
					<stop  offset="0.1231" style="stop-color:#8F9090"/>
					<stop  offset="0.1466" style="stop-color:#838484"/>
					<stop  offset="0.1702" style="stop-color:#7F8080"/>
					<stop  offset="0.2872" style="stop-color:#FFFFFF"/>
					<stop  offset="0.3083" style="stop-color:#FBFBFB"/>
					<stop  offset="0.3279" style="stop-color:#F0F0F1"/>
					<stop  offset="0.3468" style="stop-color:#DDDEDF"/>
					<stop  offset="0.3653" style="stop-color:#C3C4C6"/>
					<stop  offset="0.3723" style="stop-color:#B7B8BA"/>
					<stop  offset="0.4415" style="stop-color:#DFE0E0"/>
					<stop  offset="0.6011" style="stop-color:#707174"/>
					<stop  offset="0.6915" style="stop-color:#FFFFFF"/>
					<stop  offset="0.8404" style="stop-color:#FFFFFF"/>
					<stop  offset="0.883" style="stop-color:#95989A"/>
					<stop  offset="0.9358" style="stop-color:#E1E2E3"/>
				</linearGradient>
				<path class="st13" d="M88,111.7c-0.7,0-0.9,0.2-1.5,0.3c-0.1,0.5-0.2,0.9-0.3,1.4c0.1,0,0.2-0.1,0.3-0.1c0.3-0.1,0.8,0.1,1,0.3
					c0.2,0.1,0,0.2-0.2,0.3c-0.4,0.1-0.8,0.2-1.3,0.3c0,0.1-0.1,0.3-0.1,0.5c0,0.2-0.1,0.6-0.1,0.9c0.2-0.1,0.7-0.4,1-0.6
					c0.3-0.2,1,0.3,0.8,0.4c-0.7,0.6-1.2,0.8-1.5,0.9c-0.5,0.2-1.4-0.3-1.3-0.9c0-0.4,0.5-2.6,0.7-3.5c0,0,0,0,0,0
					c-0.1-0.1-0.4-0.4-0.2-0.4c0.7-0.1,0.9-0.2,1.6-0.3c0.3-0.1,0.6,0,0.9,0.2C88.1,111.5,88.1,111.7,88,111.7z"/>
				
					<linearGradient id="SVGID_6_" gradientUnits="userSpaceOnUse" x1="45.7006" y1="115.1162" x2="97.9841" y2="115.1162" gradientTransform="matrix(0.9999 1.068071e-02 -1.068071e-02 0.9999 40.4104 -3.4615)">
					<stop  offset="3.723400e-02" style="stop-color:#FFFFFF"/>
					<stop  offset="5.285194e-02" style="stop-color:#E3E3E3"/>
					<stop  offset="7.609658e-02" style="stop-color:#BFBFBF"/>
					<stop  offset="9.957021e-02" style="stop-color:#A3A4A4"/>
					<stop  offset="0.1231" style="stop-color:#8F9090"/>
					<stop  offset="0.1466" style="stop-color:#838484"/>
					<stop  offset="0.1702" style="stop-color:#7F8080"/>
					<stop  offset="0.2872" style="stop-color:#FFFFFF"/>
					<stop  offset="0.3083" style="stop-color:#FBFBFB"/>
					<stop  offset="0.3279" style="stop-color:#F0F0F1"/>
					<stop  offset="0.3468" style="stop-color:#DDDEDF"/>
					<stop  offset="0.3653" style="stop-color:#C3C4C6"/>
					<stop  offset="0.3723" style="stop-color:#B7B8BA"/>
					<stop  offset="0.4415" style="stop-color:#DFE0E0"/>
					<stop  offset="0.6011" style="stop-color:#707174"/>
					<stop  offset="0.6915" style="stop-color:#FFFFFF"/>
					<stop  offset="0.8404" style="stop-color:#FFFFFF"/>
					<stop  offset="0.883" style="stop-color:#95989A"/>
					<stop  offset="0.9358" style="stop-color:#E1E2E3"/>
				</linearGradient>
				<path class="st14" d="M89.8,115.4c-0.2-0.6-0.4-1.2-0.6-1.8c-0.1,0.8-0.3,1.7-0.4,2.4c0,0.1-0.9-0.2-0.9-0.6
					c0.1-0.5,0.1-0.5,0.7-4.4c0-0.2,0.8,0,0.9,0.5c0.2,0.6,0.3,1.3,0.5,1.9c0.2-1.2,0.4-2.6,0.4-2.6c0-0.3,1.1,0.1,0.9,0.7
					c0,0.1-0.6,3.1-0.8,4.2C90.6,115.9,89.9,115.6,89.8,115.4z"/>
				
					<linearGradient id="SVGID_7_" gradientUnits="userSpaceOnUse" x1="45.7006" y1="115.1162" x2="97.9841" y2="115.1162" gradientTransform="matrix(0.9999 1.068071e-02 -1.068071e-02 0.9999 40.4104 -3.4615)">
					<stop  offset="3.723400e-02" style="stop-color:#FFFFFF"/>
					<stop  offset="5.285194e-02" style="stop-color:#E3E3E3"/>
					<stop  offset="7.609658e-02" style="stop-color:#BFBFBF"/>
					<stop  offset="9.957021e-02" style="stop-color:#A3A4A4"/>
					<stop  offset="0.1231" style="stop-color:#8F9090"/>
					<stop  offset="0.1466" style="stop-color:#838484"/>
					<stop  offset="0.1702" style="stop-color:#7F8080"/>
					<stop  offset="0.2872" style="stop-color:#FFFFFF"/>
					<stop  offset="0.3083" style="stop-color:#FBFBFB"/>
					<stop  offset="0.3279" style="stop-color:#F0F0F1"/>
					<stop  offset="0.3468" style="stop-color:#DDDEDF"/>
					<stop  offset="0.3653" style="stop-color:#C3C4C6"/>
					<stop  offset="0.3723" style="stop-color:#B7B8BA"/>
					<stop  offset="0.4415" style="stop-color:#DFE0E0"/>
					<stop  offset="0.6011" style="stop-color:#707174"/>
					<stop  offset="0.6915" style="stop-color:#FFFFFF"/>
					<stop  offset="0.8404" style="stop-color:#FFFFFF"/>
					<stop  offset="0.883" style="stop-color:#95989A"/>
					<stop  offset="0.9358" style="stop-color:#E1E2E3"/>
				</linearGradient>
				<path class="st15" d="M94.5,111.7c-0.6,1.6-1,2.3-1.6,3.9c-0.1,0.3-1-0.1-1-0.3c-0.1-1-0.2-3-0.4-4.5c0-0.2,1-0.1,1,0.6
					c0.1,0.7,0.1,1.4,0.2,2c0.4-1,0.8-1.9,1.3-2.8C94,110.3,94.8,110.7,94.5,111.7z"/>
				
					<linearGradient id="SVGID_8_" gradientUnits="userSpaceOnUse" x1="45.7006" y1="115.1162" x2="97.9841" y2="115.1162" gradientTransform="matrix(0.9999 1.068071e-02 -1.068071e-02 0.9999 40.4104 -3.4615)">
					<stop  offset="3.723400e-02" style="stop-color:#FFFFFF"/>
					<stop  offset="5.285194e-02" style="stop-color:#E3E3E3"/>
					<stop  offset="7.609658e-02" style="stop-color:#BFBFBF"/>
					<stop  offset="9.957021e-02" style="stop-color:#A3A4A4"/>
					<stop  offset="0.1231" style="stop-color:#8F9090"/>
					<stop  offset="0.1466" style="stop-color:#838484"/>
					<stop  offset="0.1702" style="stop-color:#7F8080"/>
					<stop  offset="0.2872" style="stop-color:#FFFFFF"/>
					<stop  offset="0.3083" style="stop-color:#FBFBFB"/>
					<stop  offset="0.3279" style="stop-color:#F0F0F1"/>
					<stop  offset="0.3468" style="stop-color:#DDDEDF"/>
					<stop  offset="0.3653" style="stop-color:#C3C4C6"/>
					<stop  offset="0.3723" style="stop-color:#B7B8BA"/>
					<stop  offset="0.4415" style="stop-color:#DFE0E0"/>
					<stop  offset="0.6011" style="stop-color:#707174"/>
					<stop  offset="0.6915" style="stop-color:#FFFFFF"/>
					<stop  offset="0.8404" style="stop-color:#FFFFFF"/>
					<stop  offset="0.883" style="stop-color:#95989A"/>
					<stop  offset="0.9358" style="stop-color:#E1E2E3"/>
				</linearGradient>
				<path class="st16" d="M97.6,115.1c0,0.2-1,0.1-1-0.4c0-0.1,0-0.1,0-0.2c-0.4,0.2-0.9,0.3-1.2,0.5c-0.1,0.1-0.1,0.3-0.2,0.4
					c-0.1,0.2-0.9-0.3-0.7-0.8c0.7-1.8,1.6-3.8,1.8-4.2c0.1-0.3,1,0,1,0.4C97.4,112.2,97.5,113.7,97.6,115.1z M96.5,113.7
					c0-0.4-0.1-0.9-0.1-1.3c-0.2,0.5-0.5,1-0.7,1.6C96,113.9,96.2,113.8,96.5,113.7z"/>
				
					<linearGradient id="SVGID_9_" gradientUnits="userSpaceOnUse" x1="45.7006" y1="115.1162" x2="97.9841" y2="115.1162" gradientTransform="matrix(0.9999 1.068071e-02 -1.068071e-02 0.9999 40.4104 -3.4615)">
					<stop  offset="3.723400e-02" style="stop-color:#FFFFFF"/>
					<stop  offset="5.285194e-02" style="stop-color:#E3E3E3"/>
					<stop  offset="7.609658e-02" style="stop-color:#BFBFBF"/>
					<stop  offset="9.957021e-02" style="stop-color:#A3A4A4"/>
					<stop  offset="0.1231" style="stop-color:#8F9090"/>
					<stop  offset="0.1466" style="stop-color:#838484"/>
					<stop  offset="0.1702" style="stop-color:#7F8080"/>
					<stop  offset="0.2872" style="stop-color:#FFFFFF"/>
					<stop  offset="0.3083" style="stop-color:#FBFBFB"/>
					<stop  offset="0.3279" style="stop-color:#F0F0F1"/>
					<stop  offset="0.3468" style="stop-color:#DDDEDF"/>
					<stop  offset="0.3653" style="stop-color:#C3C4C6"/>
					<stop  offset="0.3723" style="stop-color:#B7B8BA"/>
					<stop  offset="0.4415" style="stop-color:#DFE0E0"/>
					<stop  offset="0.6011" style="stop-color:#707174"/>
					<stop  offset="0.6915" style="stop-color:#FFFFFF"/>
					<stop  offset="0.8404" style="stop-color:#FFFFFF"/>
					<stop  offset="0.883" style="stop-color:#95989A"/>
					<stop  offset="0.9358" style="stop-color:#E1E2E3"/>
				</linearGradient>
				<path class="st17" d="M99.5,112.9c0.6,0.1,1.6,0.3,1,1.4c-0.5,1-1.5,1-2.3,0.5c-0.5-0.3-0.6-1.2-0.3-1c1.9,1.1,2,0.2,1.4,0.1
					c-1.1-0.2-1.4-0.8-1.2-1.6c0.1-0.6,0.5-1.2,0.9-1.8c0.4-0.5,0.8-0.5,1-0.5c2.1-0.1,0.7,1.3,0.8,2.4c0,0.3-1-0.1-0.8-0.9
					c0.2-1,0.3-1.2-0.1-0.5C99.5,111.6,98.7,112.8,99.5,112.9z"/>
				
					<linearGradient id="SVGID_10_" gradientUnits="userSpaceOnUse" x1="45.7006" y1="115.1162" x2="97.9841" y2="115.1162" gradientTransform="matrix(0.9999 1.068071e-02 -1.068071e-02 0.9999 40.4104 -3.4615)">
					<stop  offset="3.723400e-02" style="stop-color:#FFFFFF"/>
					<stop  offset="5.285194e-02" style="stop-color:#E3E3E3"/>
					<stop  offset="7.609658e-02" style="stop-color:#BFBFBF"/>
					<stop  offset="9.957021e-02" style="stop-color:#A3A4A4"/>
					<stop  offset="0.1231" style="stop-color:#8F9090"/>
					<stop  offset="0.1466" style="stop-color:#838484"/>
					<stop  offset="0.1702" style="stop-color:#7F8080"/>
					<stop  offset="0.2872" style="stop-color:#FFFFFF"/>
					<stop  offset="0.3083" style="stop-color:#FBFBFB"/>
					<stop  offset="0.3279" style="stop-color:#F0F0F1"/>
					<stop  offset="0.3468" style="stop-color:#DDDEDF"/>
					<stop  offset="0.3653" style="stop-color:#C3C4C6"/>
					<stop  offset="0.3723" style="stop-color:#B7B8BA"/>
					<stop  offset="0.4415" style="stop-color:#DFE0E0"/>
					<stop  offset="0.6011" style="stop-color:#707174"/>
					<stop  offset="0.6915" style="stop-color:#FFFFFF"/>
					<stop  offset="0.8404" style="stop-color:#FFFFFF"/>
					<stop  offset="0.883" style="stop-color:#95989A"/>
					<stop  offset="0.9358" style="stop-color:#E1E2E3"/>
				</linearGradient>
				<path class="st18" d="M104.2,110.4c-0.7,0-0.9,0.1-1.5,0.3c-0.1,0.5-0.2,0.9-0.3,1.4c0.1,0,0.2,0,0.3-0.1c0.3-0.1,0.8,0.1,1,0.3
					c0.2,0.1,0,0.2-0.2,0.3c-0.4,0.1-0.8,0.2-1.3,0.3c0,0.1-0.1,0.3-0.1,0.5c-0.1,0.2-0.1,0.6-0.1,0.9c0.2-0.1,0.7-0.4,1-0.6
					c0.3-0.2,1,0.3,0.8,0.4c-0.7,0.6-1.2,0.7-1.5,0.9c-0.5,0.2-1.4-0.3-1.3-1c0-0.4,0.5-2.6,0.8-3.5c0,0,0,0,0,0
					c-0.1-0.1-0.4-0.4-0.1-0.4c0.7,0,0.9-0.1,1.6-0.2c0.3-0.1,0.6,0.1,0.9,0.3C104.3,110.2,104.4,110.4,104.2,110.4z"/>
				
					<linearGradient id="SVGID_11_" gradientUnits="userSpaceOnUse" x1="45.7006" y1="115.1162" x2="97.9841" y2="115.1162" gradientTransform="matrix(0.9999 1.068071e-02 -1.068071e-02 0.9999 40.4104 -3.4615)">
					<stop  offset="3.723400e-02" style="stop-color:#FFFFFF"/>
					<stop  offset="5.285194e-02" style="stop-color:#E3E3E3"/>
					<stop  offset="7.609658e-02" style="stop-color:#BFBFBF"/>
					<stop  offset="9.957021e-02" style="stop-color:#A3A4A4"/>
					<stop  offset="0.1231" style="stop-color:#8F9090"/>
					<stop  offset="0.1466" style="stop-color:#838484"/>
					<stop  offset="0.1702" style="stop-color:#7F8080"/>
					<stop  offset="0.2872" style="stop-color:#FFFFFF"/>
					<stop  offset="0.3083" style="stop-color:#FBFBFB"/>
					<stop  offset="0.3279" style="stop-color:#F0F0F1"/>
					<stop  offset="0.3468" style="stop-color:#DDDEDF"/>
					<stop  offset="0.3653" style="stop-color:#C3C4C6"/>
					<stop  offset="0.3723" style="stop-color:#B7B8BA"/>
					<stop  offset="0.4415" style="stop-color:#DFE0E0"/>
					<stop  offset="0.6011" style="stop-color:#707174"/>
					<stop  offset="0.6915" style="stop-color:#FFFFFF"/>
					<stop  offset="0.8404" style="stop-color:#FFFFFF"/>
					<stop  offset="0.883" style="stop-color:#95989A"/>
					<stop  offset="0.9358" style="stop-color:#E1E2E3"/>
				</linearGradient>
				<path class="st19" d="M108.8,114.3c0.1,0.1-0.5,0.4-0.9,0.1c-0.3-0.2-0.8-0.9-1-1.3c0,0,0,0,0,0c-0.1,0.5-0.2,1.1-0.3,1.5
					c0,0.1-0.9-0.2-0.8-0.6c0.1-0.5,0.6-3.1,0.7-3.8c-0.3-0.3-0.3-0.3,0.1-0.4c1.4-0.4,2.2,0,2.6,0.7c0.3,0.6-0.3,1.5-1.4,2.3
					C108,113,108.5,113.9,108.8,114.3z M108.4,110.5c-0.1-0.2-0.5-0.2-0.9-0.1c-0.1,0.3-0.2,1-0.4,1.8
					C108.1,111.5,108.5,110.5,108.4,110.5z"/>
				
					<linearGradient id="SVGID_12_" gradientUnits="userSpaceOnUse" x1="45.7006" y1="115.1162" x2="97.9841" y2="115.1162" gradientTransform="matrix(0.9999 1.068071e-02 -1.068071e-02 0.9999 40.4104 -3.4615)">
					<stop  offset="3.723400e-02" style="stop-color:#FFFFFF"/>
					<stop  offset="5.285194e-02" style="stop-color:#E3E3E3"/>
					<stop  offset="7.609658e-02" style="stop-color:#BFBFBF"/>
					<stop  offset="9.957021e-02" style="stop-color:#A3A4A4"/>
					<stop  offset="0.1231" style="stop-color:#8F9090"/>
					<stop  offset="0.1466" style="stop-color:#838484"/>
					<stop  offset="0.1702" style="stop-color:#7F8080"/>
					<stop  offset="0.2872" style="stop-color:#FFFFFF"/>
					<stop  offset="0.3083" style="stop-color:#FBFBFB"/>
					<stop  offset="0.3279" style="stop-color:#F0F0F1"/>
					<stop  offset="0.3468" style="stop-color:#DDDEDF"/>
					<stop  offset="0.3653" style="stop-color:#C3C4C6"/>
					<stop  offset="0.3723" style="stop-color:#B7B8BA"/>
					<stop  offset="0.4415" style="stop-color:#DFE0E0"/>
					<stop  offset="0.6011" style="stop-color:#707174"/>
					<stop  offset="0.6915" style="stop-color:#FFFFFF"/>
					<stop  offset="0.8404" style="stop-color:#FFFFFF"/>
					<stop  offset="0.883" style="stop-color:#95989A"/>
					<stop  offset="0.9358" style="stop-color:#E1E2E3"/>
				</linearGradient>
				<path class="st20" d="M112.2,110c-0.7,0-0.9,0.1-1.5,0.2c-0.1,0.5-0.2,0.9-0.4,1.4c0.1,0,0.2,0,0.3-0.1c0.3-0.1,0.8,0.1,1,0.3
					c0.2,0.1,0,0.2-0.2,0.3c-0.4,0.1-0.8,0.2-1.3,0.3c0,0.1-0.1,0.3-0.1,0.4c-0.1,0.2-0.1,0.6-0.2,0.9c0.2-0.1,0.7-0.4,1-0.6
					c0.3-0.2,1,0.3,0.8,0.4c-0.8,0.5-1.2,0.7-1.5,0.8c-0.5,0.2-1.4-0.4-1.3-1c0-0.4,0.6-2.6,0.8-3.4c0,0,0,0,0,0
					c-0.1-0.1-0.4-0.4-0.1-0.4c0.7,0,0.9-0.1,1.6-0.2c0.3-0.1,0.6,0.1,0.9,0.3C112.3,109.8,112.3,110,112.2,110z"/>
				
					<linearGradient id="SVGID_13_" gradientUnits="userSpaceOnUse" x1="45.7006" y1="115.1162" x2="97.9841" y2="115.1162" gradientTransform="matrix(0.9999 1.068071e-02 -1.068071e-02 0.9999 40.4104 -3.4615)">
					<stop  offset="3.723400e-02" style="stop-color:#FFFFFF"/>
					<stop  offset="5.285194e-02" style="stop-color:#E3E3E3"/>
					<stop  offset="7.609658e-02" style="stop-color:#BFBFBF"/>
					<stop  offset="9.957021e-02" style="stop-color:#A3A4A4"/>
					<stop  offset="0.1231" style="stop-color:#8F9090"/>
					<stop  offset="0.1466" style="stop-color:#838484"/>
					<stop  offset="0.1702" style="stop-color:#7F8080"/>
					<stop  offset="0.2872" style="stop-color:#FFFFFF"/>
					<stop  offset="0.3083" style="stop-color:#FBFBFB"/>
					<stop  offset="0.3279" style="stop-color:#F0F0F1"/>
					<stop  offset="0.3468" style="stop-color:#DDDEDF"/>
					<stop  offset="0.3653" style="stop-color:#C3C4C6"/>
					<stop  offset="0.3723" style="stop-color:#B7B8BA"/>
					<stop  offset="0.4415" style="stop-color:#DFE0E0"/>
					<stop  offset="0.6011" style="stop-color:#707174"/>
					<stop  offset="0.6915" style="stop-color:#FFFFFF"/>
					<stop  offset="0.8404" style="stop-color:#FFFFFF"/>
					<stop  offset="0.883" style="stop-color:#95989A"/>
					<stop  offset="0.9358" style="stop-color:#E1E2E3"/>
				</linearGradient>
				<path class="st21" d="M115.2,109.8c-0.4,0-0.7,0-0.9,0.1c-0.1,0.4-0.7,3-1,4.3c0,0.1-0.9-0.2-0.8-0.6c0.2-1.3,0.5-2.4,0.7-3.6
					c-0.3,0-0.6,0-0.8-0.2c-0.1-0.1-0.4-0.4-0.1-0.5c0.7,0,1.2-0.1,2-0.2c0.3,0,0.6,0.1,0.9,0.3
					C115.2,109.7,115.3,109.8,115.2,109.8z"/>
				
					<linearGradient id="SVGID_14_" gradientUnits="userSpaceOnUse" x1="45.7006" y1="115.1162" x2="97.9841" y2="115.1162" gradientTransform="matrix(0.9999 1.068071e-02 -1.068071e-02 0.9999 40.4104 -3.4615)">
					<stop  offset="3.723400e-02" style="stop-color:#FFFFFF"/>
					<stop  offset="5.285194e-02" style="stop-color:#E3E3E3"/>
					<stop  offset="7.609658e-02" style="stop-color:#BFBFBF"/>
					<stop  offset="9.957021e-02" style="stop-color:#A3A4A4"/>
					<stop  offset="0.1231" style="stop-color:#8F9090"/>
					<stop  offset="0.1466" style="stop-color:#838484"/>
					<stop  offset="0.1702" style="stop-color:#7F8080"/>
					<stop  offset="0.2872" style="stop-color:#FFFFFF"/>
					<stop  offset="0.3083" style="stop-color:#FBFBFB"/>
					<stop  offset="0.3279" style="stop-color:#F0F0F1"/>
					<stop  offset="0.3468" style="stop-color:#DDDEDF"/>
					<stop  offset="0.3653" style="stop-color:#C3C4C6"/>
					<stop  offset="0.3723" style="stop-color:#B7B8BA"/>
					<stop  offset="0.4415" style="stop-color:#DFE0E0"/>
					<stop  offset="0.6011" style="stop-color:#707174"/>
					<stop  offset="0.6915" style="stop-color:#FFFFFF"/>
					<stop  offset="0.8404" style="stop-color:#FFFFFF"/>
					<stop  offset="0.883" style="stop-color:#95989A"/>
					<stop  offset="0.9358" style="stop-color:#E1E2E3"/>
				</linearGradient>
				<path class="st22" d="M117.9,111.9c-0.3,1-1,2.6-2.3,2.2c-1.2-0.4-1.1-1.8-0.8-2.8c0.3-1,1-2.6,2.3-2.2
					C118.3,109.5,118.1,110.9,117.9,111.9z M116.8,109.8c-0.2-0.1-0.8,0.7-1.1,1.7c-0.3,1-0.2,1.8,0,1.9c0.3,0.1,0.7-0.7,1-1.6
					C117.1,110.9,117.1,109.8,116.8,109.8z"/>
				
					<linearGradient id="SVGID_15_" gradientUnits="userSpaceOnUse" x1="45.7006" y1="115.1162" x2="97.9841" y2="115.1162" gradientTransform="matrix(0.9999 1.068071e-02 -1.068071e-02 0.9999 40.4104 -3.4615)">
					<stop  offset="3.723400e-02" style="stop-color:#FFFFFF"/>
					<stop  offset="5.285194e-02" style="stop-color:#E3E3E3"/>
					<stop  offset="7.609658e-02" style="stop-color:#BFBFBF"/>
					<stop  offset="9.957021e-02" style="stop-color:#A3A4A4"/>
					<stop  offset="0.1231" style="stop-color:#8F9090"/>
					<stop  offset="0.1466" style="stop-color:#838484"/>
					<stop  offset="0.1702" style="stop-color:#7F8080"/>
					<stop  offset="0.2872" style="stop-color:#FFFFFF"/>
					<stop  offset="0.3083" style="stop-color:#FBFBFB"/>
					<stop  offset="0.3279" style="stop-color:#F0F0F1"/>
					<stop  offset="0.3468" style="stop-color:#DDDEDF"/>
					<stop  offset="0.3653" style="stop-color:#C3C4C6"/>
					<stop  offset="0.3723" style="stop-color:#B7B8BA"/>
					<stop  offset="0.4415" style="stop-color:#DFE0E0"/>
					<stop  offset="0.6011" style="stop-color:#707174"/>
					<stop  offset="0.6915" style="stop-color:#FFFFFF"/>
					<stop  offset="0.8404" style="stop-color:#FFFFFF"/>
					<stop  offset="0.883" style="stop-color:#95989A"/>
					<stop  offset="0.9358" style="stop-color:#E1E2E3"/>
				</linearGradient>
				<path class="st23" d="M121,113.7c0.1,0.1-0.5,0.4-0.9,0.1c-0.3-0.2-0.8-0.9-1-1.3c0,0,0,0,0,0c-0.1,0.5-0.2,1.1-0.4,1.5
					c0,0.1-0.9-0.2-0.8-0.7c0.1-0.5,0.7-3.1,0.8-3.8c-0.3-0.3-0.2-0.3,0.1-0.4c1.4-0.4,2.2,0.1,2.5,0.7c0.3,0.6-0.4,1.5-1.5,2.3
					C120.2,112.5,120.7,113.3,121,113.7z M120.6,109.9c-0.1-0.2-0.5-0.2-0.9-0.2c-0.1,0.3-0.3,1-0.4,1.8
					C120.3,111,120.7,110,120.6,109.9z"/>
				
					<linearGradient id="SVGID_16_" gradientUnits="userSpaceOnUse" x1="45.7006" y1="115.1162" x2="97.9841" y2="115.1162" gradientTransform="matrix(0.9999 1.068071e-02 -1.068071e-02 0.9999 40.4104 -3.4615)">
					<stop  offset="3.723400e-02" style="stop-color:#FFFFFF"/>
					<stop  offset="5.285194e-02" style="stop-color:#E3E3E3"/>
					<stop  offset="7.609658e-02" style="stop-color:#BFBFBF"/>
					<stop  offset="9.957021e-02" style="stop-color:#A3A4A4"/>
					<stop  offset="0.1231" style="stop-color:#8F9090"/>
					<stop  offset="0.1466" style="stop-color:#838484"/>
					<stop  offset="0.1702" style="stop-color:#7F8080"/>
					<stop  offset="0.2872" style="stop-color:#FFFFFF"/>
					<stop  offset="0.3083" style="stop-color:#FBFBFB"/>
					<stop  offset="0.3279" style="stop-color:#F0F0F1"/>
					<stop  offset="0.3468" style="stop-color:#DDDEDF"/>
					<stop  offset="0.3653" style="stop-color:#C3C4C6"/>
					<stop  offset="0.3723" style="stop-color:#B7B8BA"/>
					<stop  offset="0.4415" style="stop-color:#DFE0E0"/>
					<stop  offset="0.6011" style="stop-color:#707174"/>
					<stop  offset="0.6915" style="stop-color:#FFFFFF"/>
					<stop  offset="0.8404" style="stop-color:#FFFFFF"/>
					<stop  offset="0.883" style="stop-color:#95989A"/>
					<stop  offset="0.9358" style="stop-color:#E1E2E3"/>
				</linearGradient>
				<path class="st24" d="M123,113.4c-0.2-0.6-0.3-1.3-0.5-1.9c-0.2,0.8-0.4,1.7-0.6,2.4c0,0.1-0.9-0.2-0.8-0.7
					c0.1-0.5,0.1-0.5,1-4.3c0.1-0.2,0.8,0.1,0.9,0.5c0.1,0.7,0.3,1.3,0.4,2c0.3-1.2,0.6-2.6,0.6-2.6c0.1-0.3,1.1,0.2,0.9,0.8
					c0,0.1-0.8,3.1-1,4.2C123.8,114,123.1,113.7,123,113.4z"/>
				
					<linearGradient id="SVGID_17_" gradientUnits="userSpaceOnUse" x1="45.7006" y1="115.1162" x2="97.9841" y2="115.1162" gradientTransform="matrix(0.9999 1.068071e-02 -1.068071e-02 0.9999 40.4104 -3.4615)">
					<stop  offset="3.723400e-02" style="stop-color:#FFFFFF"/>
					<stop  offset="5.285194e-02" style="stop-color:#E3E3E3"/>
					<stop  offset="7.609658e-02" style="stop-color:#BFBFBF"/>
					<stop  offset="9.957021e-02" style="stop-color:#A3A4A4"/>
					<stop  offset="0.1231" style="stop-color:#8F9090"/>
					<stop  offset="0.1466" style="stop-color:#838484"/>
					<stop  offset="0.1702" style="stop-color:#7F8080"/>
					<stop  offset="0.2872" style="stop-color:#FFFFFF"/>
					<stop  offset="0.3083" style="stop-color:#FBFBFB"/>
					<stop  offset="0.3279" style="stop-color:#F0F0F1"/>
					<stop  offset="0.3468" style="stop-color:#DDDEDF"/>
					<stop  offset="0.3653" style="stop-color:#C3C4C6"/>
					<stop  offset="0.3723" style="stop-color:#B7B8BA"/>
					<stop  offset="0.4415" style="stop-color:#DFE0E0"/>
					<stop  offset="0.6011" style="stop-color:#707174"/>
					<stop  offset="0.6915" style="stop-color:#FFFFFF"/>
					<stop  offset="0.8404" style="stop-color:#FFFFFF"/>
					<stop  offset="0.883" style="stop-color:#95989A"/>
					<stop  offset="0.9358" style="stop-color:#E1E2E3"/>
				</linearGradient>
				<path class="st25" d="M127.8,113.7c0,0.2-1,0-1-0.5c0-0.1,0-0.1,0-0.2c-0.4,0.1-0.9,0.3-1.3,0.4c-0.1,0.1-0.1,0.3-0.2,0.4
					c-0.1,0.2-0.9-0.4-0.7-0.9c0.8-1.8,1.8-3.7,2-4.1c0.1-0.3,1,0.1,1,0.4C127.8,110.7,127.8,112.2,127.8,113.7z M126.8,112.2
					c0-0.4,0-0.9,0-1.3c-0.2,0.5-0.5,1-0.8,1.5C126.3,112.4,126.6,112.3,126.8,112.2z"/>
				
					<linearGradient id="SVGID_18_" gradientUnits="userSpaceOnUse" x1="45.7006" y1="115.1162" x2="97.9841" y2="115.1162" gradientTransform="matrix(0.9999 1.068071e-02 -1.068071e-02 0.9999 40.4104 -3.4615)">
					<stop  offset="3.723400e-02" style="stop-color:#FFFFFF"/>
					<stop  offset="5.285194e-02" style="stop-color:#E3E3E3"/>
					<stop  offset="7.609658e-02" style="stop-color:#BFBFBF"/>
					<stop  offset="9.957021e-02" style="stop-color:#A3A4A4"/>
					<stop  offset="0.1231" style="stop-color:#8F9090"/>
					<stop  offset="0.1466" style="stop-color:#838484"/>
					<stop  offset="0.1702" style="stop-color:#7F8080"/>
					<stop  offset="0.2872" style="stop-color:#FFFFFF"/>
					<stop  offset="0.3083" style="stop-color:#FBFBFB"/>
					<stop  offset="0.3279" style="stop-color:#F0F0F1"/>
					<stop  offset="0.3468" style="stop-color:#DDDEDF"/>
					<stop  offset="0.3653" style="stop-color:#C3C4C6"/>
					<stop  offset="0.3723" style="stop-color:#B7B8BA"/>
					<stop  offset="0.4415" style="stop-color:#DFE0E0"/>
					<stop  offset="0.6011" style="stop-color:#707174"/>
					<stop  offset="0.6915" style="stop-color:#FFFFFF"/>
					<stop  offset="0.8404" style="stop-color:#FFFFFF"/>
					<stop  offset="0.883" style="stop-color:#95989A"/>
					<stop  offset="0.9358" style="stop-color:#E1E2E3"/>
				</linearGradient>
				<path class="st26" d="M130.4,111.6c1.8,1.2-0.5,2.2-1.6,2.1c-0.2,0-0.9-0.3-0.8-0.7c0.1-0.4,0.6-2.8,0.9-3.8
					c-0.4-0.4-0.3-0.4,0.1-0.5c1.4-0.4,2.3,0.1,2.6,0.8C131.9,110.4,131,111.1,130.4,111.6z M130,112.2c-0.2-0.1-0.5,0-0.8,0.1
					c-0.1,0.3-0.1,0.5-0.2,0.8C129.7,112.9,130.2,112.3,130,112.2z M130.8,109.7c-0.1-0.2-0.5-0.2-0.9-0.2c-0.1,0.3-0.3,1-0.5,1.8
					C130.5,110.7,130.9,109.8,130.8,109.7z"/>
				
					<linearGradient id="SVGID_19_" gradientUnits="userSpaceOnUse" x1="45.7006" y1="115.1162" x2="97.9841" y2="115.1162" gradientTransform="matrix(0.9999 1.068071e-02 -1.068071e-02 0.9999 40.4104 -3.4615)">
					<stop  offset="3.723400e-02" style="stop-color:#FFFFFF"/>
					<stop  offset="5.285194e-02" style="stop-color:#E3E3E3"/>
					<stop  offset="7.609658e-02" style="stop-color:#BFBFBF"/>
					<stop  offset="9.957021e-02" style="stop-color:#A3A4A4"/>
					<stop  offset="0.1231" style="stop-color:#8F9090"/>
					<stop  offset="0.1466" style="stop-color:#838484"/>
					<stop  offset="0.1702" style="stop-color:#7F8080"/>
					<stop  offset="0.2872" style="stop-color:#FFFFFF"/>
					<stop  offset="0.3083" style="stop-color:#FBFBFB"/>
					<stop  offset="0.3279" style="stop-color:#F0F0F1"/>
					<stop  offset="0.3468" style="stop-color:#DDDEDF"/>
					<stop  offset="0.3653" style="stop-color:#C3C4C6"/>
					<stop  offset="0.3723" style="stop-color:#B7B8BA"/>
					<stop  offset="0.4415" style="stop-color:#DFE0E0"/>
					<stop  offset="0.6011" style="stop-color:#707174"/>
					<stop  offset="0.6915" style="stop-color:#FFFFFF"/>
					<stop  offset="0.8404" style="stop-color:#FFFFFF"/>
					<stop  offset="0.883" style="stop-color:#95989A"/>
					<stop  offset="0.9358" style="stop-color:#E1E2E3"/>
				</linearGradient>
				<path class="st27" d="M133.6,113.1c-0.8,0.5-0.9,0.5-1.2,0.6c-0.5,0.2-1.4-0.4-1.2-1.1c0.3-1.3,0.6-2.6,0.9-3.9
					c0.1-0.2,1.1,0.2,0.9,0.8c-0.2,0.9-0.5,1.9-0.8,2.8c-0.2,0.8-0.3,0.7,0.6,0.3C133.1,112.5,133.8,113,133.6,113.1z"/>
				
					<linearGradient id="SVGID_20_" gradientUnits="userSpaceOnUse" x1="45.7006" y1="115.1162" x2="97.9841" y2="115.1162" gradientTransform="matrix(0.9999 1.068071e-02 -1.068071e-02 0.9999 40.4104 -3.4615)">
					<stop  offset="3.723400e-02" style="stop-color:#FFFFFF"/>
					<stop  offset="5.285194e-02" style="stop-color:#E3E3E3"/>
					<stop  offset="7.609658e-02" style="stop-color:#BFBFBF"/>
					<stop  offset="9.957021e-02" style="stop-color:#A3A4A4"/>
					<stop  offset="0.1231" style="stop-color:#8F9090"/>
					<stop  offset="0.1466" style="stop-color:#838484"/>
					<stop  offset="0.1702" style="stop-color:#7F8080"/>
					<stop  offset="0.2872" style="stop-color:#FFFFFF"/>
					<stop  offset="0.3083" style="stop-color:#FBFBFB"/>
					<stop  offset="0.3279" style="stop-color:#F0F0F1"/>
					<stop  offset="0.3468" style="stop-color:#DDDEDF"/>
					<stop  offset="0.3653" style="stop-color:#C3C4C6"/>
					<stop  offset="0.3723" style="stop-color:#B7B8BA"/>
					<stop  offset="0.4415" style="stop-color:#DFE0E0"/>
					<stop  offset="0.6011" style="stop-color:#707174"/>
					<stop  offset="0.6915" style="stop-color:#FFFFFF"/>
					<stop  offset="0.8404" style="stop-color:#FFFFFF"/>
					<stop  offset="0.883" style="stop-color:#95989A"/>
					<stop  offset="0.9358" style="stop-color:#E1E2E3"/>
				</linearGradient>
				<path class="st28" d="M137.1,109.4c-0.7,0-0.9,0.1-1.6,0.2c-0.1,0.5-0.3,0.9-0.4,1.4c0.1,0,0.2,0,0.3-0.1c0.3,0,0.8,0.2,1,0.3
					c0.2,0.2,0,0.2-0.3,0.3c-0.4,0.1-0.9,0.1-1.3,0.2c0,0.1-0.1,0.3-0.1,0.4c-0.1,0.2-0.2,0.6-0.2,0.9c0.2-0.1,0.7-0.3,1.1-0.5
					c0.3-0.2,1,0.4,0.8,0.5c-0.8,0.5-1.2,0.7-1.6,0.8c-0.5,0.2-1.3-0.4-1.2-1c0.1-0.4,0.7-2.5,1-3.4c0,0,0,0,0,0
					c-0.1-0.1-0.4-0.5-0.1-0.5c0.7,0,0.9-0.1,1.6-0.1c0.3,0,0.6,0.1,0.9,0.3C137.2,109.2,137.2,109.4,137.1,109.4z"/>
			</g>
		</g>
	</g>
</g>
</svg>
